<?xml version="1.0" standalone="no"?>
<!DOCTYPE svg PUBLIC "-//W3C//DTD SVG 1.1//EN" "http://www.w3.org/Graphics/SVG/1.1/DTD/svg11.dtd" >
<svg xmlns="http://www.w3.org/2000/svg" xmlns:xlink="http://www.w3.org/1999/xlink" version="1.1">
<metadata>
Created by FontForge 20170731 at Tue Jun 22 13:53:23 2021
 By Aleksey,,,
Skyhaven + Brine Foundry
</metadata>
<defs>
<font id="Windsor-Regular" horiz-adv-x="231" >
  <font-face 
    font-family="Windsor"
    font-weight="400"
    font-stretch="normal"
    units-per-em="2048"
    panose-1="0 0 0 0 0 0 0 0 0 0"
    ascent="1638"
    descent="-410"
    x-height="1001"
    cap-height="1020"
    bbox="-145 -186 883 1311"
    underline-thickness="102"
    underline-position="-307"
    unicode-range="U+0009-FB02"
  />
<missing-glyph 
 />
    <glyph glyph-name=".notdef" 
 />
    <glyph glyph-name=".null" horiz-adv-x="0" 
 />
    <glyph glyph-name="nonmarkingreturn" horiz-adv-x="682" 
 />
    <glyph glyph-name="HT" unicode="&#x9;" 
 />
    <glyph glyph-name="LF" unicode="&#xa;" 
 />
    <glyph glyph-name="CR" unicode="&#xd;" 
 />
    <glyph glyph-name="DLE" 
 />
    <glyph glyph-name="DC1" 
 />
    <glyph glyph-name="DC2" 
 />
    <glyph glyph-name="DC3" 
 />
    <glyph glyph-name="DC4" 
 />
    <glyph glyph-name="RS" 
 />
    <glyph glyph-name="US" 
 />
    <glyph glyph-name="space" unicode=" " horiz-adv-x="509" 
 />
    <glyph glyph-name="exclam" unicode="!" horiz-adv-x="215" 
d="M94 20q2 -11 -24 -24q-1 4 -4.5 11l-6 12t-2.5 8q0 2 2 5t4 6.5t3 4.5q-1 -3 1.5 -5.5t6 -4t9.5 -5.5t11 -8zM106 1004q0 -2 -3 -16.5t-7 -33.5t-6 -30v-29q4 -7 0 -21q0 -3 -3 -10t-3 -10v-342q0 -2 0.5 -16.5t1 -34t0.5 -33.5q0 -3 -2 -10.5t-2 -11.5v-244q-18 0 -21 2
l2 647q2 22 4 57.5t3.5 56.5t7.5 46t16 43q2 0 7 -3t5 -7z" />
    <glyph glyph-name="quotedbl" unicode="&#x22;" horiz-adv-x="290" 
d="M90 989q0 -6 -4 -10q0 -4 -0.5 -13.5t-0.5 -16t1 -14.5t4 -13h-22v118q0 3 -4.5 6.5t-4.5 6.5q0 5 2 5l2 1q1 5 0 18t1 24.5t10 22.5h14q-8 -19 -8 -45q0 -2 1 -12t2.5 -28.5t2.5 -39.5q4 -8 4 -10zM182 971v-76q-1 0 -3 -0.5t-5.5 -1t-7.5 -0.5l-19 192q0 15 9 39h12
l2 -2q-2 -12 -2 -37q0 -2 2 -20t4.5 -43.5t3.5 -42.5q5 -5 4 -8z" />
    <glyph glyph-name="numbersign" unicode="#" horiz-adv-x="518" 
d="M332 414l10 207h-131q-43 0 -72 4q-8 -79 -8.5 -132t-3.5 -71l125 -8q3 0 19.5 3t19.5 3q4 0 6.5 -3t5.5 -3h29zM422 401v-16q-10 1 -27.5 5.5t-19.5 4.5t-4.5 -3t-5.5 -3t-8 3.5t-7 4.5q-14 -145 -22 -182h-19q21 99 21 135v47h-164q-4 0 -6.5 2t-5.5 2h-27
q-1 -11 -3.5 -42.5t-3.5 -46t-4 -37.5t-7 -38.5t-9 -27.5q-5 0 -10 1l-4 1q7 30 11 61t7.5 73.5t4.5 55.5q-3 0 -14 2t-18 3t-15 0t-11 -5v25q20 -2 53 -2l2 2l13 203l-34 1q-34 0 -34 -1l2 16q20 3 64 0q6 31 9 69t5 83t4 69q13 4 21 0l-15 -204q0 -13 4 -19
q15 0 40.5 -1.5t45 -3t21.5 -1.5t19.5 3t19.5 3q3 0 5 -3t5 -3h39l25 235q5 0 9 -1l5 -1l-17 -231q51 -11 60 -14v-17q-10 1 -27.5 5.5t-19.5 4.5q-8 0 -15 -10q-1 -21 -3 -58.5t-3 -64.5t0 -43q0 -2 -3 -6.5t-3 -7.5v-12q59 -10 74 -15z" />
    <glyph glyph-name="dollar" unicode="$" horiz-adv-x="339" 
d="M221 362q0 56 -15 103.5t-56 105.5v-362q25 4 40.5 19t21.5 42t7.5 45t1.5 47zM125 633v223q-59 -30 -59 -92q0 -35 11 -58t48 -73zM244 371q0 -8 -5 -51t-10 -64q-5 -22 -32 -43t-50 -20v-84h-16v77q-42 8 -96 31v8q6 6 10 6q3 0 34 -11t34 -11h18v385q-39 39 -62.5 87
t-23.5 83q0 39 20.5 71.5t61.5 38.5l8 95h10l7 -2q-7 -54 -7 -90q43 -13 74 -41v-11q-2 0 -4.5 -2t-5.5 -2t-12.5 6.5t-22.5 15t-20 11.5h-9v-195q0 -42 5 -57q1 -4 6 -11.5t13 -17.5t11 -14q21 -30 37 -67q1 -1 7.5 -22t13 -51t6.5 -48z" />
    <glyph glyph-name="percent" unicode="%" horiz-adv-x="663" 
d="M561 152q-4 0 -4 2q2 27 -21.5 65t-54.5 39q-16 4 -30 4q-42 0 -74.5 -39.5t-32.5 -77.5q0 -29 17 -60.5t49 -49.5q2 -1 12.5 -8t21 -11t21.5 -4q43 0 68.5 46t27.5 94zM238 776q0 36 -22 91t-56 55q-27 0 -53 -33.5t-38 -68t-8 -40.5q-6 -15 -6 -39q0 -18 5 -41
t23.5 -47t47.5 -24q44 0 75.5 53.5t31.5 93.5zM580 145q0 -28 -11 -61t-38.5 -61.5t-65.5 -28.5q-55 0 -98 51.5t-43 99.5q0 9 4 20.5t11 27.5t11 26q11 29 43.5 46.5t57.5 17.5q44 0 79.5 -32t44.5 -89q0 -3 2.5 -8.5t2.5 -8.5zM436 975q-34 -66 -51 -154q0 -3 -5.5 -15.5
t-6.5 -17.5q-49 -204 -97 -428q-2 -8 -4 -29.5t-4 -29.5q-27 -93 -50.5 -201t-33.5 -147h-10q-4 8 -4 12q0 8 28.5 134.5t62.5 279t44 207.5q1 8 23 92q6 24 19 78.5t21.5 87t24 73.5t33.5 68zM256 776q0 -58 -36.5 -112t-88.5 -54q-39 0 -66.5 38t-27.5 71v69q0 2 2.5 8
t6 14.5t5.5 14.5q23 58 33 72q11 15 34.5 29t41.5 14q27 0 47.5 -21t30 -51t14 -53.5t4.5 -38.5z" />
    <glyph glyph-name="ampersand" unicode="&#x26;" horiz-adv-x="452" 
d="M254 332q0 3 -12 21l-29 43.5t-25 39.5q-5 9 -32 70q-12 -19 -33 -46.5t-30.5 -42t-18 -37.5t-8.5 -48q0 -33 29.5 -82t70.5 -49q29 0 58.5 53t29.5 78zM293 756q0 39 -18 71.5t-64 32.5q-43 0 -64.5 -30.5t-21.5 -77.5q0 -45 12.5 -108t26.5 -97q12 14 36 40t33 36.5
t24 30.5t20.5 33t10.5 31t5 38zM276 338l84 -139q-1 -1 -4 -4.5t-4 -4.5q-12 11 -25.5 30.5t-31 49t-25.5 41.5q-5 -8 -22 -47t-36 -60.5t-46 -21.5q-36 0 -65.5 30.5t-42.5 64t-13 55.5q0 44 25.5 89.5t51 75.5t25.5 35l-4 12q-4 11 -9.5 31t-11 45t-9.5 60t-4 70
q0 25 2.5 43.5t11.5 41t29.5 34.5t52.5 12q54 0 81 -38t27 -87q0 -38 -22.5 -80.5t-49 -71.5t-49 -51.5t-22.5 -26.5q0 -11 40 -82.5t52 -87.5q4 9 8.5 26.5t10.5 30t16 23.5q8 0 8 -12q0 -2 -29 -86z" />
    <glyph glyph-name="quotesingle" unicode="'" horiz-adv-x="200" 
d="M88 1010q0 -43 -37 -99q0 1 -2 3t-5 4.5t-5 5.5q29 29 29 94q0 19 -13.5 62t-13.5 53q0 7 16 12q7 -31 15.5 -57.5t12 -41t3.5 -36.5z" />
    <glyph glyph-name="parenleft" unicode="(" horiz-adv-x="288" 
d="M285 -109v-8q-3 -6 -9 -6q-3 0 -10 7t-16 16.5t-14 13.5q-93 104 -142 205q-41 91 -49 153q-14 82 -14 144q0 58 26 276q0 3 5 18t6 21q2 8 11 58t13.5 67.5t17.5 62t26.5 71.5t37 64t53.5 68h13q2 -4 2 -8q0 -2 -7.5 -10.5t-18.5 -21t-17 -19.5q-36 -54 -47 -86
q-1 -4 -5.5 -19.5t-5.5 -19.5t-9 -19.5t-9 -23.5q-25 -97 -48.5 -241t-23.5 -238q0 -134 57.5 -276.5t176.5 -248.5z" />
    <glyph glyph-name="parenright" unicode=")" horiz-adv-x="268" 
d="M170 416q0 -149 -57 -282t-189 -259q-8 8 -8 10t82 97q52 64 78 118q74 149 74 316q0 82 -25 205q-5 24 -18 94.5t-21 106t-25 93t-41 106t-57 95.5v12h12q86 -118 109 -229q2 -13 10 -38.5t10 -35.5q1 -3 19 -85.5t24 -116t14.5 -97t8.5 -110.5z" />
    <glyph glyph-name="asterisk" unicode="*" horiz-adv-x="428" 
d="M332 1022l-2 -18l-137 12q-3 -3 -3 -6t12.5 -22.5t32.5 -50.5t29 -46q-8 -8 -12 -8q-6 0 -59 88q-9 -17 -11.5 -55t-3.5 -44h-16q1 30 4.5 70.5t3.5 56.5q-4 -3 -8.5 -9.5t-7.5 -8.5q-77 -43 -88 -43q-10 0 -15 14q17 4 29 9q2 1 6 5t6 5q1 1 6.5 2t7.5 2q8 7 27.5 21
t22.5 16q-4 2 -19 2q-7 1 -27.5 2.5t-37.5 4.5t-29 9l4 19q18 -11 31 -11q9 0 24 -3t23 -3q12 0 18 4v8q-43 62 -43 80q0 3 2.5 5.5t7 5.5t5.5 4q14 -55 57 -105q1 5 -1.5 14.5t-2.5 10.5q0 6 7.5 49t10.5 53l21 -4q-4 -5 -5 -12t-1.5 -17t-1.5 -14q-1 -1 -3 -4.5t-4 -6.5
t-2 -5l3 -64q3 3 10.5 11t11.5 10q20 13 82 45q2 0 10 -8q-10 -13 -42 -31.5t-44 -28.5q34 -6 111 -10z" />
    <glyph glyph-name="plus" unicode="+" horiz-adv-x="583" 
d="M516 528v-16q-46 12 -61 12q-2 0 -7 -2t-8 -2t-9 3t-9 3h-150v-71q0 -3 3.5 -13.5t3.5 -13.5t-3.5 -18.5t-3.5 -18.5v-184q-1 0 -5 -2t-5 -2q-6 2 -6 8v319h-68q-1 0 -14 3.5t-20 3.5q-91 5 -127 8v14l225 -10q5 10 4 23.5t-4.5 40.5t-3.5 36q0 3 1 13.5t1 13.5v135
q0 11 5.5 40t8.5 32h10q-6 -141 -6 -148l4 -184q9 -5 19 -4.5t28.5 3.5t24.5 3q4 0 10 -6q104 0 162 -19z" />
    <glyph glyph-name="comma" unicode="," horiz-adv-x="229" 
d="M102 25v-29q0 -18 -20 -59t-19 -54q-2 -1 -22 -31t-31 -30q-2 0 -12 10q18 10 40.5 53.5t29.5 73.5q0 1 5.5 9t6.5 12q0 3 3 20t3 25h16z" />
    <glyph glyph-name="hyphen" unicode="-" horiz-adv-x="636" 
d="M532 528q-1 -1 -0.5 -8.5t-1.5 -9.5q-54 12 -59 12q-2 0 -6 -2t-6 -2q-3 0 -9.5 3t-9.5 3h-127q-3 0 -37.5 3t-37.5 3q-2 0 -15 -2t-16 -2t-18 4t-19 5q-39 0 -125 8l2 16l262 -14q3 0 22.5 1t22.5 1q74 0 178 -19z" />
    <glyph glyph-name="period" unicode="." horiz-adv-x="227" 
d="M94 20q2 -11 -24 -24q-1 4 -4.5 11l-6 12t-2.5 8q0 2 2 5t4 6.5t3 4.5q-1 -3 1.5 -5.5t6 -4t9.5 -5.5t11 -8z" />
    <glyph glyph-name="slash" unicode="/" horiz-adv-x="382" 
d="M311 993q-38 -71 -47 -143q-1 -5 -8 -19t-8 -20q-16 -71 -50 -236t-55 -251q-2 -7 -32.5 -140t-53.5 -211q-10 5 -10 13q0 7 31.5 149.5t65 294.5t36.5 178q1 9 9.5 37.5t11.5 42.5q7 27 20 84t21 89t23 74t32 71q10 0 14 -13z" />
    <glyph glyph-name="zero" unicode="0" horiz-adv-x="456" 
d="M365 387l-5 264q-16 149 -22 185l-2 12q-1 11 -3.5 24.5t-6 31t-9.5 33.5t-13.5 30t-18.5 22t-23 8q-26 0 -47.5 -19t-34.5 -45t-23 -64t-14 -64t-8 -57t-4 -33q-17 -124 -20 -185q-3 -48 -7.5 -91t-7 -73.5t-2.5 -74.5q0 -73 14 -130t60 -104q37 -37 78 -37
q28 0 49.5 23t33.5 62.5t20 79t11 87.5t4 71t1 44zM379 680l4 -375q-2 -19 -6 -59t-8.5 -69.5t-10.5 -55.5q-12 -45 -42.5 -83t-69.5 -38q-17 0 -40.5 11.5t-37.5 23.5q-94 85 -94 254q0 2 2.5 38t6.5 92t7 95q0 1 -2 4.5t-2 5.5q9 47 27 201q2 14 5.5 44.5t7 56t7.5 44.5
q11 44 47 95t82 51q23 0 42 -20.5t29.5 -50t16 -50t6.5 -31.5q4 -27 23 -184z" />
    <glyph glyph-name="one" unicode="1" horiz-adv-x="456" 
d="M293 25v-19h-66q-2 -2 -16 -5t-21 -3q-9 0 -24 10v17l14 -7l6 5q5 -5 11 -5q10 0 20.5 5.5t7.5 13.5l21 561l-4 100q0 3 3 27t3 27v122l6 109l-49 -37h-12l-3 4q-2 3 -4 4l88 68v-88q0 -3 -1 -9.5t-2.5 -16.5t-2.5 -15l-10 -508l-16 -362q33 0 51 2z" />
    <glyph glyph-name="two" unicode="2" horiz-adv-x="456" 
d="M365 16q0 -6 -9 -10h-217q-5 -2 -39 4q-6 21 -6 47q0 36 14 79t40 99t34 76q15 41 47 122.5t51 132t35.5 117t16.5 116.5q0 25 -12 67.5t-39.5 82.5t-61.5 40q-19 0 -34 -7t-23.5 -16.5t-16.5 -28t-11.5 -31t-8.5 -36.5q-2 -10 -4.5 -32.5t-6.5 -41t-10 -32.5h-10
q-2 2 -2 12q0 24 8 60q1 4 7 34.5t12 48t17.5 42t30 37t42.5 12.5q38 0 68 -28.5t45.5 -69.5t23.5 -76.5t8 -59.5q0 -43 -31.5 -138t-68.5 -188t-41 -110q-8 -32 -39.5 -96.5t-38.5 -81.5q-20 -52 -20 -105q0 -24 4 -28q55 -6 112 -6l101 2q28 0 33 -9z" />
    <glyph glyph-name="three" unicode="3" horiz-adv-x="456" 
d="M373 330q0 -21 -0.5 -37t-3.5 -52.5t-8.5 -65t-18 -63t-29 -57.5t-43.5 -39t-61 -16q-30 0 -57.5 17t-65.5 57v8q2 0 4.5 2t5.5 2q2 0 19.5 -17t44 -34t49.5 -17q29 0 52.5 14t38 33.5t25 50t15 54t7.5 56.5t3 45.5v31.5q0 85 -11 117q-21 65 -91 82l-27 9
q-27 9 -54.5 21t-27.5 19q0 5 6 16t13 15q90 52 147 131q20 28 31.5 72.5t11.5 84.5q0 117 -110 117q-25 0 -53.5 -11.5t-45.5 -22.5t-49 -33q-6 6 -6 8q0 12 39 37t59 30q36 9 56 9q131 0 131 -132q0 -83 -49.5 -168.5t-145.5 -134.5q-4 -1 -14 -16q6 -2 24.5 -8.5
t26.5 -9.5q3 -1 21.5 -8.5t29.5 -8.5q42 -6 68.5 -40.5t34.5 -71t8 -76.5z" />
    <glyph glyph-name="four" unicode="4" horiz-adv-x="456" 
d="M379 545v-17h-39v-530l-18 -2v530h-246l35 351q7 65 -27 118v9l6 6q15 -6 25 -35q7 -18 14.5 -48.5t7.5 -35.5l-41 -344h217l4 2q3 13 -1.5 49t-4.5 43v264q0 1 1.5 18.5t3.5 43.5t3 45q5 2 9 4q10 -2 10 -6q0 -10 -3 -41t-3 -33v-227l4 -164q20 4 43 0z" />
    <glyph glyph-name="five" unicode="5" horiz-adv-x="456" 
d="M360 377q0 -35 -6 -70q-3 -16 -7 -76.5t-15 -111t-35 -80.5q-33 -41 -131 -41q-37 0 -55 6v12h100q16 2 46.5 18.5t37.5 33.5q19 43 24 73q4 35 9 94t7.5 100t2.5 46q0 151 -72 223q-8 7 -36 13t-42 6q-71 0 -69 -39h-23v428h201q9 0 24.5 -3.5t18.5 -7.5q0 -8 -6 -8
h-211q-8 -36 -8 -127l2 -219q1 -4 2 -12.5t2 -11.5q28 18 67 18q55 0 88 -23q40 -26 62 -104t22 -137z" />
    <glyph glyph-name="six" unicode="6" horiz-adv-x="456" 
d="M348 195q0 78 -31 149q-3 7 -14 34.5t-18 41.5t-21.5 34t-32.5 33q-21 16 -53 23q-5 1 -18 2.5t-24.5 3t-20.5 2.5v-129q0 -23 5 -73t17.5 -123t41.5 -125t69 -52q30 0 51.5 22t31 54.5t13.5 58t4 44.5zM369 195q0 -25 -5 -54.5t-16.5 -64t-37 -57.5t-60.5 -23
q-41 0 -72 44.5t-47 104.5t-26 134t-12.5 119.5t-2.5 74.5q0 1 3 34t3 48q0 35 3 81t14.5 116t30.5 125.5t55.5 96t83.5 40.5q16 0 37.5 -7t31.5 -18v-8q-2 -2 -8 -2q-3 0 -30.5 8t-30.5 8q-50 0 -86.5 -55t-52.5 -133.5t-22.5 -134.5t-6.5 -88v-49q2 2 8 2q28 0 71 -11.5
t58 -29.5q58 -65 87.5 -145t29.5 -156z" />
    <glyph glyph-name="seven" unicode="7" horiz-adv-x="456" 
d="M383 1014v-33q0 -2 -8 -19t-19 -41.5t-16 -39.5q-8 -24 -41 -129q-5 -17 -24 -71t-32.5 -100t-17.5 -83q-2 -16 -6.5 -48.5t-7 -52t-4.5 -47.5t-2 -51l-4 -287q0 -11 -11 -18q-5 3 -7.5 10t-2.5 13v6l4 247q4 18 4 60q-3 231 121 524q2 8 12 31.5t24.5 55.5t21.5 50
q-13 1 -49.5 -0.5t-70 -3.5t-34.5 -2h-131q-4 8 -8 12q1 1 3 4.5t3 4.5h168q2 0 12 3t16 3q9 1 43 0.5t64 1.5z" />
    <glyph glyph-name="eight" unicode="8" horiz-adv-x="456" 
d="M371 322q0 53 -3 84t-15.5 75.5t-42.5 83.5t-79 76q-147 -254 -147 -412q0 -21 6 -57q6 -53 54 -106.5t98 -53.5q63 0 95.5 61.5t29.5 145.5q0 14 1 38t2 43.5t1 21.5zM336 911q0 65 -103 90q-9 -7 -29.5 -13t-35.5 -15q-20 -13 -38 -33.5t-24 -38.5q-1 -3 -3 -13
t-3.5 -17t-1.5 -9q0 -25 11.5 -49.5t21.5 -37t44.5 -49t49.5 -52.5q2 4 20.5 34t30.5 51.5t27.5 52t24 56t8.5 43.5zM393 315l-4 -50q-4 -50 -4 -66q-2 -36 -9.5 -69t-23 -65t-44 -51.5t-66.5 -19.5q-42 0 -81.5 29.5t-68.5 82.5q-29 54 -29 142q0 56 26.5 134t51 127.5
t64.5 123.5q8 15 12 22q-65 58 -100 107t-35 98q0 55 45 101t102 49q3 0 9 2t10 2q42 0 73 -32t31 -71q0 -40 -21 -86.5t-52 -95.5t-39 -67q4 -4 12.5 -13t11.5 -12q41 -29 68.5 -69t39.5 -85.5t16.5 -83.5t4.5 -84z" />
    <glyph glyph-name="nine" unicode="9" horiz-adv-x="456" 
d="M319 473l13 246q-1 5 -1.5 40t-5 69.5t-15 72t-36 61t-63.5 23.5q-28 0 -47.5 -22.5t-26.5 -56.5t-9.5 -55t-2.5 -38q0 -70 24 -151.5t62 -141.5q10 -18 42.5 -32.5t55.5 -14.5h10zM350 717l-10 -285l2 -131q1 -80 -4.5 -120t-24.5 -97q-8 -26 -34.5 -56t-45.5 -30h-10
l-6 4q0 6 6 12q34 8 57 42.5t32 82t12 85t2 71.5l-7 160q-12 4 -22 4q-38 -6 -85 39.5t-58 89.5q-2 6 -11 24t-12 31q-25 113 -25 170q0 22 1.5 43t8 50t17.5 49.5t32.5 35.5t49.5 15q39 0 67.5 -24t40.5 -60t20 -77t7 -74.5t0 -53.5z" />
    <glyph glyph-name="colon" unicode=":" horiz-adv-x="204" 
d="M98 240q-1 -2 -1.5 -9.5t-2 -11.5t-4.5 -4t-10 1t-10 1q-7 0 -19 16q0 -2 6 -2q3 0 12.5 8.5t12.5 8.5zM86 807q-1 -4 -3 -12.5t-3 -12.5q-8 2 -25 2q-3 0 -6 3t-6 8t-4 6q1 0 4 1t6 1t12 6.5t11 7.5q10 -10 14 -10z" />
    <glyph glyph-name="semicolon" unicode=";" horiz-adv-x="225" 
d="M129 231q0 -37 -33.5 -107.5t-56.5 -84.5l-16 8q48 48 71 131q0 1 4 5.5t4 6.5q5 23 9 54h14q4 -4 4 -13zM117 803q0 -3 -2 -8.5t-2 -8.5q-4 2 -25 2q-3 0 -6.5 3t-7.5 8.5t-6 7.5q2 0 3.5 -1t4.5 -1t13 7t13 7q6 0 10.5 -6.5t4.5 -9.5z" />
    <glyph glyph-name="less" unicode="&#x3c;" horiz-adv-x="401" 
d="M322 227q-1 -1 -4.5 -5t-4.5 -5q-56 30 -170 140t-114 165q0 27 26 84q26 62 68 109q17 19 48.5 50.5t55.5 54t25 22.5q12 0 12 -11q0 -2 -14.5 -15t-33.5 -31t-28 -29q-3 -3 -26 -26.5t-35 -39.5q-25 -29 -51 -90q-4 -8 -11 -21.5t-10.5 -20.5t-6.5 -17.5t-3 -20.5
t6 -22.5t18.5 -28t21.5 -25.5t24 -26t18 -19q40 -43 75 -76.5t55.5 -50t58.5 -45.5z" />
    <glyph glyph-name="equal" unicode="=" horiz-adv-x="497" 
d="M426 432v-16q-50 12 -72 12h-182q-2 0 -12 3t-15 3q-16 1 -46.5 3t-45.5 3l2 17l230 -11q4 0 39 -0.5t58.5 -3.5t43.5 -10zM426 655v-14q-8 -1 -28.5 2t-30.5 2q-1 0 -5 3t-8 3h-182q-1 0 -13 3t-18 3q-10 1 -40 3.5t-48 3.5l2 16l230 -10q8 0 31 -0.5t38 -1.5t35.5 -4
t36.5 -9z" />
    <glyph glyph-name="greater" unicode="&#x3e;" horiz-adv-x="405" 
d="M311 522q0 -42 -63 -113.5t-123 -121.5t-96 -74q-2 0 -6.5 4t-4.5 8q24 18 59 47.5t89 78t90.5 96t36.5 75.5q0 11 -3 21.5t-6.5 16t-13.5 21.5t-16 25q-3 5 -8 18.5t-8 18.5q-11 21 -56.5 69t-50.5 54q-46 58 -51 72l8 8q8 -7 27.5 -33t31.5 -37q73 -70 95 -106
q69 -102 69 -148z" />
    <glyph glyph-name="question" unicode="?" horiz-adv-x="425" 
d="M162 20q-4 -4 -4 -18q-3 -2 -27 -2q-5 0 -9.5 5t-4.5 9q3 2 9.5 6.5t11 7.5t7.5 3t8.5 -5t8.5 -6zM350 836q0 -6 -6 -66q-1 -3 -3 -11t-3 -11q-13 -39 -25 -62q-17 -30 -68.5 -64.5t-70.5 -56.5q-25 -31 -31 -49q-2 -8 -2 -22t1 -28t1 -15v-281l-6 -6l-12 6l-2 342
q0 33 25.5 61t57 45t62.5 43.5t39 55.5q1 6 7 20t8 19q8 36 8 80q0 2 -2.5 11.5t-1.5 12.5q6 34 -17.5 86.5t-68.5 52.5q-25 0 -54.5 -19.5t-73.5 -59.5t-53 -48q-6 6 -12 9q16 15 49.5 48t50 48t43 29t50.5 14q33 0 56.5 -23t34 -57t15 -60t4.5 -44z" />
    <glyph glyph-name="at" unicode="@" horiz-adv-x="598" 
d="M326 338q-9 29 -17.5 90t-11.5 74q-18 18 -35 18q-19 0 -31 -12q-9 -6 -13.5 -17.5t-5 -18t-0.5 -22.5l1 -16q0 -72 29 -108q1 -1 6.5 -9t9 -12t10 -8t13.5 -4q15 0 28.5 21.5t16.5 23.5zM496 436q0 -11 -4.5 -38t-14.5 -64t-32 -63.5t-50 -26.5q-38 0 -63 69
q-2 -2 -9.5 -12t-11.5 -13.5t-12 -7.5t-18 -4q-27 0 -47.5 24.5t-29.5 58t-13.5 58t-4.5 34.5q0 3 4.5 7.5t4.5 6.5q0 28 18.5 51t44.5 23q8 0 22 -5.5t17 -9.5v13q0 172 -55 172q-14 0 -22.5 -9.5t-15 -24t-9.5 -18.5q-11 4 -11 13q0 19 18.5 38t39.5 19q17 0 33.5 -11
t23.5 -32q14 -44 14 -113q0 -19 7 -55.5t8 -52.5q14 -199 67 -199q25 0 46.5 36t23.5 58q1 10 2.5 30.5t2.5 33.5t1 16q0 98 -34.5 204.5t-96.5 164.5q-22 19 -58.5 31t-66.5 12q-17 0 -43.5 -7t-34.5 -16q-78 -86 -78 -262q0 -37 2.5 -75t14 -93t30.5 -96t56 -70.5
t86 -29.5q2 0 9.5 -0.5t10.5 0t9.5 2t12 5.5t11.5 11h8l4 -8q0 -16 -23.5 -23.5t-37.5 -7.5q-46 0 -83 22t-59 59t-37.5 78t-22 88t-9 78.5t-2.5 59.5t1.5 53.5t7 63.5t17.5 68t30.5 58.5t49 44t70.5 15.5q76 0 135 -43q59 -42 102.5 -172.5t43.5 -216.5z" />
    <glyph glyph-name="A" unicode="A" horiz-adv-x="499" 
d="M322 383l-89 578q-11 -40 -20 -89.5t-17 -110t-10 -71.5q-7 -40 -59 -299h35q2 0 25 1t32 1q16 -4 27 -4q3 0 10 2t10 2q2 0 6 -4q29 0 50 -6zM397 8v-12l-6 -6q-3 1 -8 6.5t-6 5.5q-6 45 -23.5 167t-27.5 189q0 2 -2 4q-59 11 -144 11h-55q-5 -31 -59 -365q-6 -6 -9 -12
q-12 9 -12 14q0 2 3 18t7 37.5t6 30.5q7 42 22.5 156.5t29.5 175.5q40 197 47 248q23 181 59 307q4 8 17 21q1 0 2.5 -2l3 -4t2.5 -3q24 -88 98 -620q1 -1 3 -2t3 -2q-3 -9 9.5 -97.5t26 -176t13.5 -89.5z" />
    <glyph glyph-name="B" unicode="B" horiz-adv-x="385" 
d="M270 254q0 62 -23 122t-67 89q-21 16 -82 16h-35l-6 -426q3 -18 11 -43q23 0 69 8q3 1 17 6.5t20 6.5q27 8 47.5 35.5t30 63t14 66.5t4.5 56zM238 786q0 78 -29 142q0 2 -9 15.5t-24 27.5t-26 14h-70v-125q0 -3 -5 -56t-5 -56v-78q0 -5 -1 -12.5t-1.5 -18t0 -46
t2.5 -91.5h12q6 0 10 4q35 9 70.5 46t48.5 73q27 87 27 161zM289 254q0 -34 -5.5 -69t-18.5 -73.5t-39.5 -67t-63.5 -36.5q-70 -14 -72 -14q-3 0 -13.5 2t-13.5 2q-10 0 -16.5 19t-8 33.5t-1.5 21.5v334q0 1 2 13.5t2 18.5q3 54 7.5 222.5t8.5 261.5q0 9 1 21t2.5 27.5
t2.5 24.5q13 11 56 11q42 0 71 -23.5t42.5 -61t18.5 -70.5t5 -67q0 -188 -123 -284l2 -2q43 -5 75.5 -32t48.5 -65.5t23 -75t7 -71.5z" />
    <glyph glyph-name="C" unicode="C" horiz-adv-x="409" 
d="M354 934q-8 -8 -12 -8q-2 0 -8 6q-11 37 -28 47t-52 10q-48 0 -102 -47q-16 -12 -37 -49q-29 -51 -39 -119q-21 -116 -25.5 -153.5t-5.5 -112.5l-2 -109q0 -2 2 -21t4.5 -44.5t3.5 -40.5q0 -76 17 -133q18 -65 58 -105.5t93 -40.5q14 0 92 39h9q1 -2 3 -5t3 -5
q-6 -11 -44 -28t-63 -17q-196 0 -194 398v3.5v3.5v3q0 65 5 150.5t5 86.5q4 73 10 109q0 4 4.5 15t5.5 17q20 100 69.5 161t127.5 61q17 0 24 -0.5t20 -3.5t20.5 -10.5t17.5 -21.5t18 -36z" />
    <glyph glyph-name="D" unicode="D" horiz-adv-x="389" 
d="M272 616q0 25 -0.5 42.5t-3.5 59.5t-8.5 72.5t-17.5 69.5t-28.5 64.5t-43 43t-59.5 17.5q-13 0 -29 -4q-1 -2 -5 -1t-5 5l-11 -174v-190q0 -23 -6 -35l-2 -572q41 21 68 43q6 5 14.5 15.5t11.5 13.5q5 5 14.5 17.5t12.5 15.5q22 29 46.5 94.5t27.5 101.5q5 41 10 89t7 64
t4 42.5t2.5 48t0.5 57.5zM291 616q0 -77 -4 -114q-1 -23 -11 -111q-22 -158 -53 -223q-28 -58 -61 -94q-3 -3 -12.5 -13.5t-18 -18.5t-16.5 -13q-53 -35 -66 -35q-5 0 -8 2t-4 4t-2 7.5t-2 8.5l8 762q0 127 12 211q1 8 24 11.5t34 3.5q37 0 66.5 -18.5t48 -45t32 -67.5
t19.5 -73.5t9.5 -76t4 -62.5t0.5 -45z" />
    <glyph glyph-name="E" unicode="E" horiz-adv-x="346" 
d="M272 1008q-32 -6 -98 -8.5t-102 -12.5q0 -1 -6 -29l2 -450q2 -2 8 -2q3 0 59.5 10t59.5 10q12 0 28 -8v-14q-3 0 -10.5 2t-11.5 2q-3 0 -3 -2t-3 -2t-6 1t-7 1q-2 0 -13 -2.5t-26.5 -6t-25.5 -5.5q-2 0 -7 -3.5t-8 -3.5t-7 1t-7 1q-18 0 -21 -4.5t0.5 -14t-1.5 -24.5
l2 -165q-9 -122 -9 -136q0 -54 13 -106q15 -6 34 -6l144 6q0 -2 2 -6.5t2 -7.5q-32 -9 -137 -9q-49 0 -54 2q-6 3 -13 36t-7 44v652q0 4 4 20q0 3 -1 12.5t-1 12.5v215l225 14l1 -5q1 -5 1 -9z" />
    <glyph glyph-name="F" unicode="F" horiz-adv-x="333" 
d="M283 1010q-8 -13 -13 -13l-207 -2v-16l-10 -377l2 -84q14 3 43 9t47 10t21 4q17 0 24 -11v-12q-12 6 -16 6q-3 0 -4 -3t-4 -3t-4 1t-4 1t-33 -8t-33 -8q-4 0 -5 1q0 1 -3 1q-18 0 -31 -10l-2 -275l-16 -209q-1 0 -5 -2t-7 -2q-1 1 -3 2t-3 2t-1 4l17 250l6 580q0 21 3 56
t5 40v68q10 1 27 3t30 3.5t15 1.5h63q3 0 14.5 1t14.5 1q54 0 72 -10z" />
    <glyph glyph-name="G" unicode="G" horiz-adv-x="495" 
d="M397 477l17 -190q5 -52 -8.5 -121.5t-38.5 -110.5q-23 -41 -78 -41q-30 0 -67.5 19.5t-65.5 52.5q-49 60 -68 117q-16 41 -25 88q-1 1 -8.5 53.5t-14.5 115t-7 83.5q0 109 24 218t84 177q46 52 75 70t65 18q59 0 104 -57v-8q-3 -3 -6 -3q-2 0 -11.5 7.5t-22.5 17.5
t-21 14q-22 11 -43 11q-31 0 -67.5 -26.5t-59.5 -66.5q-5 -9 -30 -43.5t-32 -50.5q-37 -92 -37 -227q0 -82 17.5 -216t36.5 -173q36 -74 65 -109q46 -59 109 -59q50 0 67 29q21 34 33.5 102.5t9.5 118.5l-12 174h-158l-6 6q0 2 2.5 6t5.5 4h172z" />
    <glyph glyph-name="H" unicode="H" horiz-adv-x="430" 
d="M305 365v-342l-6 -7q-5 0 -7 5.5t-3.5 17t-3.5 18.5l-4 490q-71 0 -138 -10q-30 -5 -47 -5q-3 0 -12.5 3t-13.5 4v-529q-8 -4 -21 2v590q0 3 -3 30.5t-3 31.5q0 6 4 22q0 7 -1 21t-1 16v184q0 53 10 111q1 0 5.5 1t5.5 1q6 -3 6 -10q0 -5 -2.5 -31.5t-4 -50t0.5 -49.5
q5 -21 2 -33q-9 -42 -2 -66l2 -213q-1 -8 4 -11t12 -3q3 0 5 3t5 3t7.5 -3t7.5 -3t52 8t52 8q1 0 4.5 -1t17.5 -2t41 -1q6 12 0 62q-2 17 -2 106v185q0 21 11 106q0 2 6 8q12 -4 12 -10q0 -5 -2.5 -32.5t-4 -50.5t0.5 -48v-35q-2 -20 -2 -63l6 -402q4 -12 4 -26z" />
    <glyph glyph-name="I" unicode="I" horiz-adv-x="198" 
d="M96 1010q0 -9 -6.5 -55t-1.5 -83q1 -7 -4 -45l-2 -460l-8 -353l-6 -6h-11l6 436v394q0 32 15 174q0 2 6 8q12 -4 12 -10z" />
    <glyph glyph-name="J" unicode="J" horiz-adv-x="352" 
d="M256 1006q0 -1 -2 -13t-4.5 -27.5t-3.5 -25.5q-14 -236 -15 -258l-12 -418q-1 -3 0 -12t0 -14q-7 -20 -8.5 -65.5t-4 -80t-23.5 -62.5t-62 -28q-43 0 -86 43q5 10 12 10q37 -35 76 -35q22 0 41 15.5t22 42.5q5 59 11 159t9 169t3 75v80l-1 21q-1 21 -1 32q0 4 3 17t3 16
v80q0 38 9 148t11 118q0 1 3.5 9t5.5 12h8q6 -6 6 -8z" />
    <glyph glyph-name="K" unicode="K" horiz-adv-x="376" 
d="M293 1008q0 -1 -66 -170q-2 -5 -9.5 -18.5t-10.5 -20.5q-91 -207 -135 -301q4 -1 20 0.5t21 -2.5q34 -12 55.5 -54.5t30.5 -83.5q10 -56 10 -135v-78q0 -39 19 -79.5t61 -55.5q0 -1 -1 -6t-1 -6h-15q-12 0 -35 23t-28 36q-21 65 -21 113v80q0 19 -5.5 65.5t-28 105
t-56.5 58.5q-43 0 -43 -28v-97q0 -10 -1.5 -31.5t-2.5 -62.5l-8 -260h-14l14 862q2 10 5 69.5t15 84.5q3 2 8 -1t5 -7q0 -2 -3 -23.5t-6.5 -49.5t-3.5 -44q0 -10 5 -25v-8l-7 -35v-311l220 504q3 2 7.5 -1t4.5 -7z" />
    <glyph glyph-name="L" unicode="L" horiz-adv-x="309" 
d="M238 29v-13l-209 -18l18 426v78q0 2 -1 14.5t-1 15.5v54l12 327v91q2 1 6.5 5t6.5 5l8 -8v-189q0 -11 -8 -43l-9 -563l-14 -191z" />
    <glyph glyph-name="M" unicode="M" horiz-adv-x="524" 
d="M416 1010q0 -3 -6 -39l4 -271l-6 -307l-19 -305v-76q0 -3 -3 -6.5t-3 -5.5h-6q-3 0 -2 3t-2 3h-3l1 -2l18 485l-2 484q-37 -93 -101.5 -321.5t-70.5 -248.5q-3 0 -9 6t-7 13q-129 500 -138 539l-18 -832q-2 -15 -3 -42t-3 -47t-8 -30l-5 9q-6 9 -6 12l13 381v159
q0 3 2 20.5t2 20.5v60l6 256q3 10 3 44t11 50q4 0 6 -2q23 -74 76 -284t76 -292q4 17 19 81.5t24 97.5q67 244 100 338q4 9 11 21t17 27.5t15 22.5q6 -3 11.5 -10t5.5 -12z" />
    <glyph glyph-name="N" unicode="N" horiz-adv-x="462" 
d="M322 51h4v6h-4v-6zM334 166l12 -127q0 -5 -1.5 -12t-6.5 -14t-12 -7h-11q-115 418 -258 981l-6 -176l-6 -754q-1 -4 -1 -15.5t-1.5 -21t-5.5 -14.5q-12 5 -12 53l4 480q1 7 2 27t2 28l2 375q3 6 3.5 21.5t5 24.5t17.5 9q11 0 11 -8q3 -13 60.5 -245.5t84.5 -336.5
q49 -184 102 -375l-18 947q0 10 8 18q12 -9 12.5 -38t2.5 -36z" />
    <glyph glyph-name="O" unicode="O" horiz-adv-x="483" 
d="M358 422l-2 280q-2 13 -4 42t-10 83q-17 96 -42 134q-28 39 -67 40q-59 0 -92 -71q-15 -34 -26.5 -80.5t-17 -80t-13 -90.5t-10.5 -79q-8 -46 -8 -78l-9 -262q-3 -33 0 -65.5t10.5 -60.5t32 -55t64.5 -48q7 -3 28.5 -8t34.5 -5q36 0 61.5 36.5t38 95t19 111t9 105
t3.5 56.5zM377 717v-334q0 -1 -2 -19.5t-4.5 -44t-3.5 -40.5q-4 -38 -7 -63t-13 -71t-23.5 -74t-38 -50.5t-56.5 -22.5q-33 0 -73 16q-70 29 -95.5 93t-23.5 131l4 131q1 24 4 74.5t4 72.5q3 78 27 234q11 95 22 131q17 52 52.5 96.5t80.5 44.5t76.5 -39t45 -96t19 -99
t5.5 -71z" />
    <glyph glyph-name="P" unicode="P" horiz-adv-x="346" 
d="M238 782q0 46 -19.5 117.5t-52.5 93.5q-18 13 -51 13q-1 0 -13 -1t-22 -1.5t-21 0.5v-154l11 -199v-184q6 3 16.5 7t13.5 5q32 12 54.5 32t35.5 48.5t19 48.5t12 54.5t8 44.5q9 41 9 75zM256 782q0 -53 -39 -213q-11 -40 -57.5 -74.5t-87.5 -45.5v-232q0 -51 -6 -104
q-1 -7 -2.5 -28t-4.5 -40.5t-10 -36.5h-8q-6 3 -6 10q0 2 2 17t5 42t5 54q1 7 2 28t2 29l-2 117q6 54 6 57l-16 660q10 -1 25.5 -1t29.5 1h15q58 0 90 -32t45 -111q3 -19 6 -32.5l4 -18t1.5 -14.5t0.5 -32z" />
    <glyph glyph-name="Q" unicode="Q" horiz-adv-x="438" 
d="M252 41q0 12 -25.5 53t-42.5 41q-14 0 -30 -12q-12 -8 -31 -25.5t-19 -21.5q0 -19 43.5 -39.5t57.5 -20.5q6 0 26.5 8t20.5 17zM315 735q0 3 0.5 26t0.5 37t-2 41t-6 45t-12.5 40.5t-20 36t-29.5 23t-41 9.5q-25 0 -44 -10.5t-30 -25.5t-19.5 -38.5t-11.5 -41t-7.5 -42
t-6.5 -34.5q-12 -48 -19 -97.5t-12.5 -103.5t-9.5 -80l2 -203q6 -57 9 -82.5t13 -67t25 -75.5q3 3 12.5 13t13.5 13.5t12.5 11.5t13.5 11l12.5 7.5t14 6t13.5 1.5q25 0 46 -33t30 -60q17 54 19 68q7 89 16.5 256.5t13.5 230.5q4 86 4 117zM459 -84q-2 -3 -37 -14t-45 -11
q-35 0 -68 42t-53 87q-18 -14 -26 -17t-25 -3q-46 0 -80.5 29.5t-52.5 69.5t-29 91t-13.5 84t-2.5 60v196q0 48 23 182.5t24 143.5q2 16 13 49.5t24 55.5q35 51 94 51q46 0 76 -27.5t41.5 -71t14.5 -78.5t1 -69l-31 -526v-84q0 -35 -20 -88q-1 -3 -7 -15.5t-6 -17.5
q0 -7 7.5 -21.5t17 -28.5t10.5 -16q17 -31 33.5 -43t40.5 -12t66 14q8 -8 10 -12z" />
    <glyph glyph-name="R" unicode="R" horiz-adv-x="405" 
d="M266 788q0 31 -7.5 63.5t-23.5 65.5t-48.5 53.5t-75.5 20.5q-1 0 -8.5 -1t-15 -1t-11.5 2l-8 -497q7 3 18.5 7.5t20.5 8t16 6.5q4 2 14.5 7t14.5 7q26 14 44 31.5t29 42.5t15.5 39t11 47t8.5 41q6 24 6 57zM303 45v-10q0 -13 -17 -24t-26 -11q-5 0 -20 6t-23 14
q-3 3 -4.5 7.5t-3 12t-2.5 11.5q-6 26 -7.5 62t-2.5 43q-4 61 -15 98q-2 6 -6.5 49t-11 76.5t-29.5 63.5t-59 30h-6v-315q0 -11 -7 -76t-10 -78q0 -2 -6 -2q-4 0 -8 3.5t-4 6.5t3 25.5l7 52.5t6 47l4 871q4 -2 10 -2t11 1t6 1h27q51 0 87.5 -21t54 -56.5t25 -70t7.5 -72.5
q0 -79 -33 -176q-12 -39 -56 -73.5t-90 -51.5q15 -7 27.5 -17t21 -18t15.5 -23.5t10.5 -23t7 -26.5t4.5 -23.5t3 -25.5l2 -21q7 -79 22 -135q1 -4 0.5 -46.5t8.5 -75t34 -32.5q13 0 21 12t16 15q4 -2 6 -2z" />
    <glyph glyph-name="S" unicode="S" horiz-adv-x="337" 
d="M229 266l2 -98q0 -22 -3 -45t-12.5 -55t-32.5 -52t-56 -20q-15 0 -30.5 7t-35 18t-30.5 16v12q2 0 4.5 1t5.5 1t33 -17.5t53 -17.5q86 0 86 152q0 116 -33 228.5t-100 269.5q-2 5 -8 41q-31 82 -31 141q0 14 3 35.5t11.5 52t28 51.5t47.5 21q20 0 50 -21.5t34 -40.5
q-6 -6 -10 -6l-13 13q-12 13 -30 25.5t-31 12.5q-35 0 -53.5 -54t-18.5 -89q0 -46 25 -119q13 -37 39 -110t42 -119t34.5 -111.5t29.5 -122.5z" />
    <glyph glyph-name="T" unicode="T" horiz-adv-x="352" 
d="M266 1018v-21q-12 1 -90 -4q-4 0 -4 -8q-3 -62 -13.5 -236.5t-13.5 -269.5q-1 -21 -0.5 -36t1.5 -26.5t2 -18.5t1.5 -11.5t0.5 -5.5q0 -4 -4.5 -41.5t-4.5 -40.5v-74l-20 -217l-5 -1q-5 -1 -10 -1l-6 6q16 86 13 156q0 5 3.5 16t4.5 15q0 43 2 61l2 186q8 72 8 242
q0 4 3 18t3 21q2 35 5.5 96t6.5 105t3 47v14q-72 -16 -103 -16q-15 0 -28 8v14q7 -2 18 -2t21.5 1t11.5 1t20 4.5t45 9.5t43 7q5 1 29.5 0.5t54.5 1.5z" />
    <glyph glyph-name="U" unicode="U" horiz-adv-x="366" 
d="M256 915q-2 -77 -4.5 -334.5t-1.5 -377.5q0 -34 -9.5 -80.5t-34 -88.5t-56.5 -42q-41 0 -69.5 34.5t-41 85t-17 87t-4.5 61.5q0 3 4.5 31t4.5 31v241q0 3 1 22l2.5 47.5t2.5 43.5q8 169 24 332l4 3q4 3 5 5q3 -3 5 -8.5t3 -9.5v-5l-17 -217v-106q0 -1 -3.5 -26.5
t-7 -59.5t-3.5 -56l-2 -290q0 -19 3.5 -49t13 -74.5t33 -74.5t56.5 -30q23 0 41 25.5t26 59.5t11.5 58.5t3.5 32.5v125l7 140q2 36 2 79.5t-0.5 81t-1.5 69t-2 52t-1 21.5q2 89 3.5 148.5t2.5 80t1 29.5l4 2q4 2 8 2l4 -4v-97z" />
    <glyph glyph-name="V" unicode="V" horiz-adv-x="415" 
d="M328 1001q0 -2 -3 -11.5t-6.5 -23.5l-5.5 -22q-3 -13 -8 -37.5t-9 -44t-7 -35.5q-34 -198 -54 -332t-38 -275t-29 -222h-10q-23 0 -23 68q-10 73 -14 92q0 3 -10.5 58t-12.5 79q-8 79 -20 175t-20 179.5t-15 206.5q-1 23 -2 43t-1.5 29.5t-0.5 11.5q0 10 4 34t4 32h12
v-125q0 -14 4 -54q1 -10 2.5 -33.5t2.5 -33.5q1 -13 6.5 -39.5t5.5 -28.5v-59l72 -574q2 0 2.5 -2.5t1.5 -3.5q2 10 37 305q1 12 11.5 67.5t14.5 78.5q48 339 82 475q7 33 21 33q6 -2 6 -11z" />
    <glyph glyph-name="W" unicode="W" horiz-adv-x="638" 
d="M547 977q0 -47 -17 -186q-42 -383 -108 -775q0 -12 -25 -12q-15 0 -18 8q-17 92 -39 317t-31 292q-25 -80 -59 -259q-3 -15 -13.5 -74.5t-18 -99t-20.5 -93.5t-26 -91l-4 -2q-5 -2 -10 -2q-12 0 -15 10q-8 25 -12 78q-1 14 -4 38t-4 36q-2 21 -7 73t-7 78
q-11 105 -13 129q-16 207 -37 387q-2 19 -7.5 61t-10 75.5t-4.5 35.5q0 3 2.5 8l3.5 7q10 -3 16 -27q13 -92 30.5 -260t25.5 -229q2 -12 3 -33t1.5 -49t1.5 -41q21 -242 39 -348l4 4q12 51 55 268q1 7 17 78.5t24 114.5q34 165 53 165q11 0 15 -20q1 -7 9 -89.5t16 -162
t20 -184t22 -174.5q3 -6 6 -6q11 49 68 447.5t57 471.5v66q5 0 9 4q12 -9 12 -35z" />
    <glyph glyph-name="X" unicode="X" horiz-adv-x="524" 
d="M424 4q0 -3 -3.5 -6.5t-6.5 -3.5q-4 0 -22.5 57.5t-66 213t-92.5 296.5q-8 -19 -17 -49t-20 -67t-16 -54q-7 -24 -24 -82t-26 -87t-24 -74t-30.5 -82t-32.5 -72q-1 1 -4.5 4t-3.5 6q0 2 7.5 23t18.5 51t17 49q46 146 76.5 252.5t66.5 214.5l-147 405q0 3 6 9h8
q21 -43 38.5 -90t46 -129.5t58.5 -161.5q11 30 38.5 113.5t51.5 142t60 123.5h12v-15q-19 -19 -85 -197t-66 -198q0 -2 17 -51.5t37.5 -111t27.5 -85.5q25 -82 62.5 -210.5t37.5 -133.5z" />
    <glyph glyph-name="Y" unicode="Y" horiz-adv-x="468" 
d="M393 993q0 -1 -7.5 -10t-15.5 -23.5t-10 -29.5q-1 -3 -7 -11.5t-7 -11.5q-21 -65 -63 -215q0 -19 -4 -26q-9 -24 -29.5 -87t-20.5 -69v-512q-1 -2 -7.5 -1.5t-10.5 3.5v508q0 10 -31 80l-14 26q-13 25 -19 39q-1 2 -3.5 15t-4.5 20q0 1 -9.5 25.5t-20.5 53t-25 66t-25 69
t-18.5 58t-7.5 35.5q0 7 4 11h10q23 -76 77 -223.5t95 -245.5q61 192 82 301q9 18 10 22q37 132 74 146q8 -8 8 -13z" />
    <glyph glyph-name="Z" unicode="Z" horiz-adv-x="419" 
d="M328 6q0 -3 -1 -4.5t-1 -3.5h-295l264 983h-248l-1 5q-1 4 -1 9q6 6 10 6l271 -4q-2 -5 -8.5 -21t-8.5 -24q-27 -100 -90.5 -348.5t-101.5 -382.5q-4 -15 -28 -91.5t-34 -113.5h264l3 -2q3 -1 4.5 -2.5t1.5 -5.5z" />
    <glyph glyph-name="bracketleft" unicode="[" horiz-adv-x="282" 
d="M301 1128q-6 -12 -55 -12q-3 0 -33 2t-33 2q-21 0 -31.5 -6.5t-23.5 -30.5q-5 -7 -20 -63t-15 -78v-119l8 -157q0 -33 -4 -119q-1 -23 -8.5 -100t-9.5 -138q-1 -11 0 -42t0 -46q-5 -51 -18 -117.5t-13 -103.5q0 -58 22 -75t78 -17q3 0 38.5 3t37.5 3q7 0 12 -10
q-1 -6 -5 -8.5t-8 -3t-10 -0.5t-9 -1q-40 -4 -60 -4q-59 0 -86.5 26.5t-27.5 84.5q0 21 12 111q14 91 25 266t14 205l-6 303q0 12 0.5 29.5t6.5 62t16 78t31.5 61t51.5 27.5l70 -8q8 0 49 6q1 -2 2 -5.5t2 -5.5z" />
    <glyph glyph-name="backslash" unicode="\" horiz-adv-x="387" 
d="M295 -12v-13q-1 -2 -4 -3.5t-4 -2.5q-11 5 -11 15q-5 20 -59 261.5t-86 364.5q-96 381 -96 387q0 5 6 11q5 0 8.5 -4t6 -12t3.5 -9q4 -15 18 -71t39.5 -158.5t49.5 -196.5q11 -41 30 -120.5t31 -121.5q4 -15 9.5 -53.5t9.5 -54.5q6 -30 19 -85.5t21.5 -93t8.5 -40.5z" />
    <glyph glyph-name="bracketright" unicode="]" horiz-adv-x="241" 
d="M106 172l25 -174q0 -121 -119 -113l-88 6l-2 5q-2 5 -2 10q8 4 12 4q2 0 37.5 -2t38.5 -2q58 0 80.5 18t22.5 76q0 32 -10 85.5t-11 70.5q-3 40 -19 229t-20 291q-1 30 3 123.5t-1.5 163t-27.5 116.5q-26 39 -41 39h-76q-8 0 -29 8.5t-24 12.5q2 2 6 10h8l3 -1
q4 -2 9.5 -4t13 -4t18 -3.5t21.5 -1.5q3 0 15.5 2t15.5 2q34 0 59.5 -24.5t34.5 -65.5q17 -87 17 -158l-2 -229l32 -406v-84z" />
    <glyph glyph-name="asciicircum" unicode="^" horiz-adv-x="483" 
d="M379 901v-8l-6 -6q-6 3 -10 11t-6.5 20t-4.5 16q-5 15 -29 54.5t-32 55.5q-4 9 -20 52t-32 67t-44 39q-7 -16 -32 -67t-38 -80q-4 -9 -16.5 -50t-28.5 -75.5t-35 -50.5q-6 6 -6 8q0 1 7.5 13.5t17.5 31t14 31.5q1 3 2 11t2 11q83 196 104 238q31 -11 57.5 -44t41.5 -67
q2 -6 12.5 -38t17.5 -46q1 -2 10 -15.5t17 -26t17 -29t14.5 -31.5t5.5 -25z" />
    <glyph glyph-name="underscore" unicode="_" horiz-adv-x="608" 
d="M545 -57q-6 1 -20 3l-24.5 3.5t-13.5 1.5q-2 0 -7.5 -1t-8.5 -1t-17.5 4t-17.5 4h-137q-3 0 -27.5 2t-27.5 2q-22 0 -185 10q-4 8 0 19l398 -17q25 -2 88 -14v-16z" />
    <glyph glyph-name="grave" unicode="`" horiz-adv-x="286" 
d="M178 950q-1 -2 -6.5 -5t-7.5 -5q-8 14 -40 76t-50 92q-7 8 -22 43t-15 45q0 5 1.5 7t5.5 4t7 5q1 -5 4 -17t4 -17q1 -1 5.5 -4.5t5.5 -4.5q5 -20 33 -64.5t38 -68.5q5 -12 13.5 -30t14 -31.5t9.5 -24.5z" />
    <glyph glyph-name="a" unicode="a" horiz-adv-x="491" 
d="M322 383l-89 578q-11 -40 -20 -89.5t-17 -110t-10 -71.5q-7 -40 -59 -299h35q2 0 25 1t32 1q16 -4 27 -4q3 0 10 2t10 2q2 0 6 -4q29 0 50 -6zM397 8v-12l-6 -6q-3 1 -8 6.5t-6 5.5q-6 45 -23.5 167t-27.5 189q0 2 -2 4q-59 11 -144 11h-55q-5 -31 -59 -365q-6 -6 -9 -12
q-12 9 -12 14q0 2 3 18t7 37.5t6 30.5q7 42 22.5 156.5t29.5 175.5q40 197 47 248q23 181 59 307q4 8 17 21q1 0 2.5 -2l3 -4t2.5 -3q24 -88 98 -620q1 -1 3 -2t3 -2q-3 -9 9.5 -97.5t26 -176t13.5 -89.5z" />
    <glyph glyph-name="b" unicode="b" horiz-adv-x="385" 
d="M270 254q0 62 -23 122t-67 89q-21 16 -82 16h-35l-6 -426q3 -18 11 -43q23 0 69 8q3 1 17 6.5t20 6.5q27 8 47.5 35.5t30 63t14 66.5t4.5 56zM238 786q0 78 -29 142q0 2 -9 15.5t-24 27.5t-26 14h-70v-125q0 -3 -5 -56t-5 -56v-78q0 -5 -1 -12.5t-1.5 -18t0 -46
t2.5 -91.5h12q6 0 10 4q35 9 70.5 46t48.5 73q27 87 27 161zM289 254q0 -34 -5.5 -69t-18.5 -73.5t-39.5 -67t-63.5 -36.5q-70 -14 -72 -14q-3 0 -13.5 2t-13.5 2q-10 0 -16.5 19t-8 33.5t-1.5 21.5v334q0 1 2 13.5t2 18.5q3 54 7.5 222.5t8.5 261.5q0 9 1 21t2.5 27.5
t2.5 24.5q13 11 56 11q42 0 71 -23.5t42.5 -61t18.5 -70.5t5 -67q0 -188 -123 -284l2 -2q43 -5 75.5 -32t48.5 -65.5t23 -75t7 -71.5z" />
    <glyph glyph-name="c" unicode="c" horiz-adv-x="409" 
d="M354 934q-8 -8 -12 -8q-2 0 -8 6q-11 37 -28 47t-52 10q-48 0 -102 -47q-16 -12 -37 -49q-29 -51 -39 -119q-21 -116 -25.5 -153.5t-5.5 -112.5l-2 -109q0 -2 2 -21t4.5 -44.5t3.5 -40.5q0 -76 17 -133q18 -65 58 -105.5t93 -40.5q14 0 92 39h9q1 -2 3 -5t3 -5
q-6 -11 -44 -28t-63 -17q-196 0 -194 398v3.5v3.5v3q0 65 5 150.5t5 86.5q4 73 10 109q0 4 4.5 15t5.5 17q20 100 69.5 161t127.5 61q17 0 24 -0.5t20 -3.5t20.5 -10.5t17.5 -21.5t18 -36z" />
    <glyph glyph-name="d" unicode="d" horiz-adv-x="389" 
d="M272 616q0 25 -0.5 42.5t-3.5 59.5t-8.5 72.5t-17.5 69.5t-28.5 64.5t-43 43t-59.5 17.5q-13 0 -29 -4q-1 -2 -5 -1t-5 5l-11 -174v-190q0 -23 -6 -35l-2 -572q41 21 68 43q6 5 14.5 15.5t11.5 13.5q5 5 14.5 17.5t12.5 15.5q22 29 46.5 94.5t27.5 101.5q5 41 10 89t7 64
t4 42.5t2.5 48t0.5 57.5zM291 616q0 -77 -4 -114q-1 -23 -11 -111q-22 -158 -53 -223q-28 -58 -61 -94q-3 -3 -12.5 -13.5t-18 -18.5t-16.5 -13q-53 -35 -66 -35q-5 0 -8 2t-4 4t-2 7.5t-2 8.5l8 762q0 127 12 211q1 8 24 11.5t34 3.5q37 0 66.5 -18.5t48 -45t32 -67.5
t19.5 -73.5t9.5 -76t4 -62.5t0.5 -45z" />
    <glyph glyph-name="e" unicode="e" horiz-adv-x="346" 
d="M272 1008q-32 -6 -98 -8.5t-102 -12.5q0 -1 -6 -29l2 -450q2 -2 8 -2q3 0 59.5 10t59.5 10q12 0 28 -8v-14q-3 0 -10.5 2t-11.5 2q-3 0 -3 -2t-3 -2t-6 1t-7 1q-2 0 -13 -2.5t-26.5 -6t-25.5 -5.5q-2 0 -7 -3.5t-8 -3.5t-7 1t-7 1q-18 0 -21 -4.5t0.5 -14t-1.5 -24.5
l2 -165q-9 -122 -9 -136q0 -54 13 -106q15 -6 34 -6l144 6q0 -2 2 -6.5t2 -7.5q-32 -9 -137 -9q-49 0 -54 2q-6 3 -13 36t-7 44v652q0 4 4 20q0 3 -1 12.5t-1 12.5v215l225 14l1 -5q1 -5 1 -9z" />
    <glyph glyph-name="f" unicode="f" horiz-adv-x="333" 
d="M283 1010q-8 -13 -13 -13l-207 -2v-16l-10 -377l2 -84q14 3 43 9t47 10t21 4q17 0 24 -11v-12q-12 6 -16 6q-3 0 -4 -3t-4 -3t-4 1t-4 1t-33 -8t-33 -8q-4 0 -5 1q0 1 -3 1q-18 0 -31 -10l-2 -275l-16 -209q-1 0 -5 -2t-7 -2q-1 1 -3 2t-3 2t-1 4l17 250l6 580q0 21 3 56
t5 40v68q10 1 27 3t30 3.5t15 1.5h63q3 0 14.5 1t14.5 1q54 0 72 -10z" />
    <glyph glyph-name="g" unicode="g" horiz-adv-x="495" 
d="M397 477l17 -190q5 -52 -8.5 -121.5t-38.5 -110.5q-23 -41 -78 -41q-30 0 -67.5 19.5t-65.5 52.5q-49 60 -68 117q-16 41 -25 88q-1 1 -8.5 53.5t-14.5 115t-7 83.5q0 109 24 218t84 177q46 52 75 70t65 18q59 0 104 -57v-8q-3 -3 -6 -3q-2 0 -11.5 7.5t-22.5 17.5
t-21 14q-22 11 -43 11q-31 0 -67.5 -26.5t-59.5 -66.5q-5 -9 -30 -43.5t-32 -50.5q-37 -92 -37 -227q0 -82 17.5 -216t36.5 -173q36 -74 65 -109q46 -59 109 -59q50 0 67 29q21 34 33.5 102.5t9.5 118.5l-12 174h-158l-6 6q0 2 2.5 6t5.5 4h172z" />
    <glyph glyph-name="h" unicode="h" horiz-adv-x="430" 
d="M305 365v-342l-6 -7q-5 0 -7 5.5t-3.5 17t-3.5 18.5l-4 490q-71 0 -138 -10q-30 -5 -47 -5q-3 0 -12.5 3t-13.5 4v-529q-8 -4 -21 2v590q0 3 -3 30.5t-3 31.5q0 6 4 22q0 7 -1 21t-1 16v184q0 53 10 111q1 0 5.5 1t5.5 1q6 -3 6 -10q0 -5 -2.5 -31.5t-4 -50t0.5 -49.5
q5 -21 2 -33q-9 -42 -2 -66l2 -213q-1 -8 4 -11t12 -3q3 0 5 3t5 3t7.5 -3t7.5 -3t52 8t52 8q1 0 4.5 -1t17.5 -2t41 -1q6 12 0 62q-2 17 -2 106v185q0 21 11 106q0 2 6 8q12 -4 12 -10q0 -5 -2.5 -32.5t-4 -50.5t0.5 -48v-35q-2 -20 -2 -63l6 -402q4 -12 4 -26z" />
    <glyph glyph-name="i" unicode="i" horiz-adv-x="198" 
d="M96 1010q0 -9 -6.5 -55t-1.5 -83q1 -7 -4 -45l-2 -460l-8 -353l-6 -6h-11l6 436v394q0 32 15 174q0 2 6 8q12 -4 12 -10z" />
    <glyph glyph-name="j" unicode="j" horiz-adv-x="352" 
d="M256 1006q0 -1 -2 -13t-4.5 -27.5t-3.5 -25.5q-14 -236 -15 -258l-12 -418q-1 -3 0 -12t0 -14q-7 -20 -8.5 -65.5t-4 -80t-23.5 -62.5t-62 -28q-43 0 -86 43q5 10 12 10q37 -35 76 -35q22 0 41 15.5t22 42.5q5 59 11 159t9 169t3 75v80l-1 21q-1 21 -1 32q0 4 3 17t3 16
v80q0 38 9 148t11 118q0 1 3.5 9t5.5 12h8q6 -6 6 -8z" />
    <glyph glyph-name="k" unicode="k" horiz-adv-x="376" 
d="M293 1008q0 -1 -66 -170q-2 -5 -9.5 -18.5t-10.5 -20.5q-91 -207 -135 -301q4 -1 20 0.5t21 -2.5q34 -12 55.5 -54.5t30.5 -83.5q10 -56 10 -135v-78q0 -39 19 -79.5t61 -55.5q0 -1 -1 -6t-1 -6h-15q-12 0 -35 23t-28 36q-21 65 -21 113v80q0 19 -5.5 65.5t-28 105
t-56.5 58.5q-43 0 -43 -28v-97q0 -10 -1.5 -31.5t-2.5 -62.5l-8 -260h-14l14 862q2 10 5 69.5t15 84.5q3 2 8 -1t5 -7q0 -2 -3 -23.5t-6.5 -49.5t-3.5 -44q0 -10 5 -25v-8l-7 -35v-311l220 504q3 2 7.5 -1t4.5 -7z" />
    <glyph glyph-name="l" unicode="l" horiz-adv-x="309" 
d="M238 29v-13l-209 -18l18 426v78q0 2 -1 14.5t-1 15.5v54l12 327v91q2 1 6.5 5t6.5 5l8 -8v-189q0 -11 -8 -43l-9 -563l-14 -191z" />
    <glyph glyph-name="m" unicode="m" horiz-adv-x="524" 
d="M416 1010q0 -3 -6 -39l4 -271l-6 -307l-19 -305v-76q0 -3 -3 -6.5t-3 -5.5h-6q-3 0 -2 3t-2 3h-3l1 -2l18 485l-2 484q-37 -93 -101.5 -321.5t-70.5 -248.5q-3 0 -9 6t-7 13q-129 500 -138 539l-18 -832q-2 -15 -3 -42t-3 -47t-8 -30l-5 9q-6 9 -6 12l13 381v159
q0 3 2 20.5t2 20.5v60l6 256q3 10 3 44t11 50q4 0 6 -2q23 -74 76 -284t76 -292q4 17 19 81.5t24 97.5q67 244 100 338q4 9 11 21t17 27.5t15 22.5q6 -3 11.5 -10t5.5 -12z" />
    <glyph glyph-name="n" unicode="n" horiz-adv-x="462" 
d="M322 51h4v6h-4v-6zM334 166l12 -127q0 -5 -1.5 -12t-6.5 -14t-12 -7h-11q-115 418 -258 981l-6 -176l-6 -754q-1 -4 -1 -15.5t-1.5 -21t-5.5 -14.5q-12 5 -12 53l4 480q1 7 2 27t2 28l2 375q3 6 3.5 21.5t5 24.5t17.5 9q11 0 11 -8q3 -13 60.5 -245.5t84.5 -336.5
q49 -184 102 -375l-18 947q0 10 8 18q12 -9 12.5 -38t2.5 -36z" />
    <glyph glyph-name="o" unicode="o" horiz-adv-x="475" 
d="M358 422l-2 280q-2 13 -4 42t-10 83q-17 96 -42 134q-28 39 -67 40q-59 0 -92 -71q-15 -34 -26.5 -80.5t-17 -80t-13 -90.5t-10.5 -79q-8 -46 -8 -78l-9 -262q-3 -33 0 -65.5t10.5 -60.5t32 -55t64.5 -48q7 -3 28.5 -8t34.5 -5q36 0 61.5 36.5t38 95t19 111t9 105
t3.5 56.5zM377 717v-334q0 -1 -2 -19.5t-4.5 -44t-3.5 -40.5q-4 -38 -7 -63t-13 -71t-23.5 -74t-38 -50.5t-56.5 -22.5q-33 0 -73 16q-70 29 -95.5 93t-23.5 131l4 131q1 24 4 74.5t4 72.5q3 78 27 234q11 95 22 131q17 52 52.5 96.5t80.5 44.5t76.5 -39t45 -96t19 -99
t5.5 -71z" />
    <glyph glyph-name="p" unicode="p" horiz-adv-x="346" 
d="M238 782q0 46 -19.5 117.5t-52.5 93.5q-18 13 -51 13q-1 0 -13 -1t-22 -1.5t-21 0.5v-154l11 -199v-184q6 3 16.5 7t13.5 5q32 12 54.5 32t35.5 48.5t19 48.5t12 54.5t8 44.5q9 41 9 75zM256 782q0 -53 -39 -213q-11 -40 -57.5 -74.5t-87.5 -45.5v-232q0 -51 -6 -104
q-1 -7 -2.5 -28t-4.5 -40.5t-10 -36.5h-8q-6 3 -6 10q0 2 2 17t5 42t5 54q1 7 2 28t2 29l-2 117q6 54 6 57l-16 660q10 -1 25.5 -1t29.5 1h15q58 0 90 -32t45 -111q3 -19 6 -32.5l4 -18t1.5 -14.5t0.5 -32z" />
    <glyph glyph-name="q" unicode="q" horiz-adv-x="438" 
d="M252 41q0 12 -25.5 53t-42.5 41q-14 0 -30 -12q-12 -8 -31 -25.5t-19 -21.5q0 -19 43.5 -39.5t57.5 -20.5q6 0 26.5 8t20.5 17zM315 735q0 3 0.5 26t0.5 37t-2 41t-6 45t-12.5 40.5t-20 36t-29.5 23t-41 9.5q-25 0 -44 -10.5t-30 -25.5t-19.5 -38.5t-11.5 -41t-7.5 -42
t-6.5 -34.5q-12 -48 -19 -97.5t-12.5 -103.5t-9.5 -80l2 -203q6 -57 9 -82.5t13 -67t25 -75.5q3 3 12.5 13t13.5 13.5t12.5 11.5t13.5 11l12.5 7.5t14 6t13.5 1.5q25 0 46 -33t30 -60q17 54 19 68q7 89 16.5 256.5t13.5 230.5q4 86 4 117zM459 -84q-2 -3 -37 -14t-45 -11
q-35 0 -68 42t-53 87q-18 -14 -26 -17t-25 -3q-46 0 -80.5 29.5t-52.5 69.5t-29 91t-13.5 84t-2.5 60v196q0 48 23 182.5t24 143.5q2 16 13 49.5t24 55.5q35 51 94 51q46 0 76 -27.5t41.5 -71t14.5 -78.5t1 -69l-31 -526v-84q0 -35 -20 -88q-1 -3 -7 -15.5t-6 -17.5
q0 -7 7.5 -21.5t17 -28.5t10.5 -16q17 -31 33.5 -43t40.5 -12t66 14q8 -8 10 -12z" />
    <glyph glyph-name="r" unicode="r" horiz-adv-x="405" 
d="M266 788q0 31 -7.5 63.5t-23.5 65.5t-48.5 53.5t-75.5 20.5q-1 0 -8.5 -1t-15 -1t-11.5 2l-8 -497q7 3 18.5 7.5t20.5 8t16 6.5q4 2 14.5 7t14.5 7q26 14 44 31.5t29 42.5t15.5 39t11 47t8.5 41q6 24 6 57zM303 45v-10q0 -13 -17 -24t-26 -11q-5 0 -20 6t-23 14
q-3 3 -4.5 7.5t-3 12t-2.5 11.5q-6 26 -7.5 62t-2.5 43q-4 61 -15 98q-2 6 -6.5 49t-11 76.5t-29.5 63.5t-59 30h-6v-315q0 -11 -7 -76t-10 -78q0 -2 -6 -2q-4 0 -8 3.5t-4 6.5t3 25.5l7 52.5t6 47l4 871q4 -2 10 -2t11 1t6 1h27q51 0 87.5 -21t54 -56.5t25 -70t7.5 -72.5
q0 -79 -33 -176q-12 -39 -56 -73.5t-90 -51.5q15 -7 27.5 -17t21 -18t15.5 -23.5t10.5 -23t7 -26.5t4.5 -23.5t3 -25.5l2 -21q7 -79 22 -135q1 -4 0.5 -46.5t8.5 -75t34 -32.5q13 0 21 12t16 15q4 -2 6 -2z" />
    <glyph glyph-name="s" unicode="s" horiz-adv-x="337" 
d="M229 266l2 -98q0 -22 -3 -45t-12.5 -55t-32.5 -52t-56 -20q-15 0 -30.5 7t-35 18t-30.5 16v12q2 0 4.5 1t5.5 1t33 -17.5t53 -17.5q86 0 86 152q0 116 -33 228.5t-100 269.5q-2 5 -8 41q-31 82 -31 141q0 14 3 35.5t11.5 52t28 51.5t47.5 21q20 0 50 -21.5t34 -40.5
q-6 -6 -10 -6l-13 13q-12 13 -30 25.5t-31 12.5q-35 0 -53.5 -54t-18.5 -89q0 -46 25 -119q13 -37 39 -110t42 -119t34.5 -111.5t29.5 -122.5z" />
    <glyph glyph-name="t" unicode="t" horiz-adv-x="352" 
d="M266 1018v-21q-12 1 -90 -4q-4 0 -4 -8q-3 -62 -13.5 -236.5t-13.5 -269.5q-1 -21 -0.5 -36t1.5 -26.5t2 -18.5t1.5 -11.5t0.5 -5.5q0 -4 -4.5 -41.5t-4.5 -40.5v-74l-20 -217l-5 -1q-5 -1 -10 -1l-6 6q16 86 13 156q0 5 3.5 16t4.5 15q0 43 2 61l2 186q8 72 8 242
q0 4 3 18t3 21q2 35 5.5 96t6.5 105t3 47v14q-72 -16 -103 -16q-15 0 -28 8v14q7 -2 18 -2t21.5 1t11.5 1t20 4.5t45 9.5t43 7q5 1 29.5 0.5t54.5 1.5z" />
    <glyph glyph-name="u" unicode="u" horiz-adv-x="366" 
d="M256 915q-2 -77 -4.5 -334.5t-1.5 -377.5q0 -34 -9.5 -80.5t-34 -88.5t-56.5 -42q-41 0 -69.5 34.5t-41 85t-17 87t-4.5 61.5q0 3 4.5 31t4.5 31v241q0 3 1 22l2.5 47.5t2.5 43.5q8 169 24 332l4 3q4 3 5 5q3 -3 5 -8.5t3 -9.5v-5l-17 -217v-106q0 -1 -3.5 -26.5
t-7 -59.5t-3.5 -56l-2 -290q0 -19 3.5 -49t13 -74.5t33 -74.5t56.5 -30q23 0 41 25.5t26 59.5t11.5 58.5t3.5 32.5v125l7 140q2 36 2 79.5t-0.5 81t-1.5 69t-2 52t-1 21.5q2 89 3.5 148.5t2.5 80t1 29.5l4 2q4 2 8 2l4 -4v-97z" />
    <glyph glyph-name="v" unicode="v" horiz-adv-x="415" 
d="M328 1001q0 -2 -3 -11.5t-6.5 -23.5l-5.5 -22q-3 -13 -8 -37.5t-9 -44t-7 -35.5q-34 -198 -54 -332t-38 -275t-29 -222h-10q-23 0 -23 68q-10 73 -14 92q0 3 -10.5 58t-12.5 79q-8 77 -20 174t-20 180.5t-15 206.5q-1 23 -2 43t-1.5 29.5t-0.5 11.5q0 10 4 34t4 32h12
v-125q0 -14 4 -54q1 -10 2.5 -33.5t2.5 -33.5q1 -13 6.5 -39.5t5.5 -28.5v-59l72 -574q2 0 2.5 -2.5t1.5 -3.5q2 10 37 305q1 12 11.5 67.5t14.5 78.5q48 339 82 475q7 33 21 33q6 -2 6 -11z" />
    <glyph glyph-name="w" unicode="w" horiz-adv-x="638" 
d="M547 977q0 -47 -17 -186q-42 -383 -108 -775q0 -12 -25 -12q-15 0 -18 8q-17 92 -39 317t-31 292q-25 -80 -59 -259q-3 -15 -13.5 -74.5t-18 -99t-20.5 -93.5t-26 -91l-4 -2q-5 -2 -10 -2q-12 0 -15 10q-8 25 -12 78q-1 14 -4 38t-4 36q-2 21 -7 73t-7 78
q-11 105 -13 129q-16 207 -37 387q-2 19 -7.5 61t-10 75.5t-4.5 35.5q0 3 2.5 8l3.5 7q10 -3 16 -27q13 -93 31 -262t25 -227q2 -12 3 -33t1.5 -49t1.5 -41q21 -242 39 -348l4 4q12 51 55 268q1 7 17 78.5t24 114.5q34 165 53 165q11 0 15 -20q1 -7 9 -89.5t16 -162t20 -184
t22 -174.5q3 -6 6 -6q11 49 68 447.5t57 471.5v66q5 0 9 4q12 -9 12 -35z" />
    <glyph glyph-name="x" unicode="x" horiz-adv-x="524" 
d="M424 4q0 -3 -3.5 -6.5t-6.5 -3.5q-4 0 -22.5 57.5t-66 213t-92.5 296.5q-8 -19 -17 -49t-20 -67t-16 -54q-7 -24 -24 -82t-26 -87t-24 -74t-30.5 -82t-32.5 -72q-1 1 -4.5 4t-3.5 6q0 2 7.5 23t18.5 51t17 49q46 146 76.5 252.5t66.5 214.5l-147 405q0 3 6 9h8
q21 -43 38.5 -90t46 -129.5t58.5 -161.5q11 30 38.5 113.5t51.5 142t60 123.5h12v-15q-19 -19 -85 -197t-66 -198q0 -2 17 -51.5t37.5 -111t27.5 -85.5q25 -82 62.5 -210.5t37.5 -133.5z" />
    <glyph glyph-name="y" unicode="y" horiz-adv-x="468" 
d="M393 993q0 -1 -7.5 -10t-15.5 -23.5t-10 -29.5q-1 -3 -7 -11.5t-7 -11.5q-21 -65 -63 -215q0 -19 -4 -26q-9 -24 -29.5 -87t-20.5 -69v-512q-1 -2 -7.5 -1.5t-10.5 3.5v508q0 10 -31 80l-14 26q-13 25 -19 39q-1 2 -3.5 15t-4.5 20q0 1 -9.5 25.5t-20.5 53t-25 66t-25 69
t-18.5 58t-7.5 35.5q0 7 4 11h10q23 -76 77 -223.5t95 -245.5q61 192 82 301q9 18 10 22q37 132 74 146q8 -8 8 -13z" />
    <glyph glyph-name="z" unicode="z" horiz-adv-x="413" 
d="M328 6q0 -3 -1 -4.5t-1 -3.5h-295l264 983h-248l-1 5q-1 4 -1 9q6 6 10 6l271 -4q-2 -5 -8.5 -21t-8.5 -24q-27 -100 -90.5 -348.5t-101.5 -382.5q-4 -15 -28 -91.5t-34 -113.5h264l3 -2q3 -1 4.5 -2.5t1.5 -5.5z" />
    <glyph glyph-name="braceleft" unicode="{" horiz-adv-x="274" 
d="M182 733q0 -114 -114 -176q67 -75 82.5 -102t15.5 -78t-19 -95t-41.5 -71.5t-41.5 -68.5t-19 -87q0 -52 33.5 -94t97.5 -65v-13q-2 0 -3.5 -1t-4.5 -1q-5 0 -23 8t-28 15q-52 33 -70 69t-18 84q0 41 18.5 85t40.5 76.5t40.5 76.5t18.5 84q0 22 -3 38.5t-15.5 36.5
t-19.5 29t-33.5 38.5t-38.5 43.5q39 12 94 76q16 18 24 37t8.5 27.5t0.5 27.5q0 43 -37 132t-37 141q0 62 47 86h10q0 -2 1.5 -7t1.5 -8q-25 -11 -32 -27t-7 -46q0 -42 35.5 -136t35.5 -135z" />
    <glyph glyph-name="bar" unicode="|" horiz-adv-x="223" 
d="M117 1071v-29q0 -12 -3 -51.5t-3.5 -61.5t2.5 -36q1 -4 -4 -23t-5 -20v-594q0 -3 -2 -17.5t-2 -17.5v-121l-6 -198q-8 -4 -16 0l10 686q-6 34 -6 69q0 2 3 14t3 15v215q0 50 8 152q1 1 3.5 8t4.5 12q2 0 7 -1t6 -1z" />
    <glyph glyph-name="braceright" unicode="}" horiz-adv-x="307" 
d="M205 55q0 -57 -37 -106t-109 -70q-8 8 -8 10q0 1 13.5 7t33 18t39.5 29t33.5 46.5t13.5 65.5q0 41 -19 85t-41.5 76.5t-41.5 76.5t-19 86q0 45 20 80.5t81 97.5q-61 19 -93 72t-32 110q0 46 39 139t39 140q0 23 -8.5 40t-17.5 26l-9 8q0 4 3 7q2 1 3 3q24 -8 36.5 -34.5
t12.5 -49.5q0 -57 -28 -129q-3 -8 -19 -38t-24.5 -56t-8.5 -56q0 -49 36.5 -101.5t99.5 -72.5q-21 -27 -45 -54.5t-33 -37.5t-18 -25.5t-11 -30t-2 -38.5q0 -37 19 -79.5t41.5 -76t41.5 -79.5t19 -89z" />
    <glyph glyph-name="asciitilde" unicode="~" horiz-adv-x="593" 
d="M496 598q0 -26 -8 -58.5t-30.5 -63t-54.5 -30.5q-31 0 -56.5 19.5t-43.5 47t-36 54.5t-42 46.5t-53 19.5q-45 0 -86 -65t-49 -105h-12q-2 0 -2 6q0 15 16 53t27 58q2 4 11 12.5t11 11.5q29 29 47 39t43 10q32 0 57.5 -20.5t40 -47t37.5 -56.5t47 -44q31 -22 43 -22
q24 0 41 23t23 48.5t10 53.5l4 28h13q2 -4 2 -18z" />
    <glyph glyph-name="DEL" 
 />
    <glyph glyph-name="uni00A0" unicode="&#xa0;" 
 />
    <glyph glyph-name="exclamdown" unicode="&#xa1;" horiz-adv-x="217" 
d="M80 459l18 -420v-19l-12 -2q-8 20 -8 35v74l-15 281v145q0 3 -2 23.5t-2 23.5v279h21v-420zM92 1022q0 -7 -8 -16t-12 -9q-11 0 -15 19h9q-1 4 4 24l6 -3t7.5 -3.5t6 -5t2.5 -6.5z" />
    <glyph glyph-name="cent" unicode="&#xa2;" horiz-adv-x="425" 
d="M170 297h10v379q-37 -10 -62.5 -35.5t-37.5 -60.5t-16.5 -66.5t-4.5 -64.5q0 -32 4 -46q1 -3 5 -10.5t4 -11.5q0 -1 1 -3.5t1 -4.5q1 -29 36 -52.5t60 -23.5zM338 657l-3 -5q-3 -4 -5 -5q-3 0 -7 3.5t-10 8.5t-10 7q-7 5 -25 11.5t-30 6.5q-3 0 -12 -3t-17 -3t-14 6
l-6 -383l2 -4q17 -6 73 6q7 -7 7 -12q-22 -15 -80 -15l-6 -18v-139l-17 -2v157q-45 10 -73.5 27.5t-41 43t-16.5 48.5t-4 58q0 109 33 174q11 23 46 44.5t62 28.5q4 116 19 158h10q1 -10 0 -23.5t-3 -30.5t-3 -26q-1 -7 0 -24.5t0 -24.5q-4 -4 -4 -8v-17q3 0 32.5 -1.5
t40 -4t30 -12.5t32.5 -27z" />
    <glyph glyph-name="sterling" unicode="&#xa3;" horiz-adv-x="456" 
d="M385 201v-11q-6 -2 -18 -2q-33 0 -67 33t-67 33q-36 0 -75 -31.5t-60 -75.5q0 5 -1 19t-1 16q0 11 11.5 75.5t11.5 98.5q0 80 -21 162q-3 0 -15.5 1t-20 1.5t-18.5 2.5t-18 6t-10 10q2 2 2 10q2 -1 16 -5.5t17 -4.5t3 3t3 3t12.5 -4t12.5 -4t7 1t7 1q-1 16 -2.5 49
t-2.5 54t-1 24v10q0 22 0.5 36t2.5 42.5t8.5 47.5t17 39.5t29 31t42.5 10.5q23 0 39.5 -13t16.5 -34q0 -18 -10 -31q-1 0 -4.5 2t-4.5 2q16 59 -39 59q-82 0 -82 -176l7 -151l166 -11q4 -8 0 -16l-144 8l-18 -6q0 -4 4 -28.5t8 -61.5t4 -70q0 -49 -9 -90.5t-9 -50.5v-10
q70 63 116 63q32 0 54 -17t44.5 -34t55.5 -16z" />
    <glyph glyph-name="yen" unicode="&#xa5;" horiz-adv-x="337" 
d="M240 856q-9 -8 -21 -43q-15 -39 -26.5 -100.5t-14.5 -73.5q-1 -7 -14.5 -48.5t-13.5 -51.5v-50q7 1 33 -0.5t38 0.5v-18q-32 -3 -69 0q-2 0 -1 -36t1 -38l69 -12q0 -3 -1 -9t-1 -7q-36 6 -69 8v-184q-5 -5 -13 -5q-1 1 -4 2.5t-4 2.5v184l-4 4l-6 -4q-6 1 -17 2t-15 1.5
t-11 2.5t-12 4.5t-11 7.5q4 4 4 17q11 -11 19 -11q4 0 5 1q0 1 1 1l6 -4h39q2 2 0 72q-8 -8 -12 -8q-3 0 -3 3t-3 3t-8.5 -1t-8.5 -1q-16 0 -33 10v17q4 -2 19 -7l8 5q5 -5 16 -5q2 0 12 1t15 1q3 20 0 50q-3 15 -18 46.5t-19 45.5q-1 2 -1 9t-1 11q0 3 -15 46t-28.5 91
t-13.5 68q0 14 16 14q2 -8 5.5 -26t6 -28.5t7 -25t10.5 -26.5q1 -2 1 -10.5t1 -12.5q30 -96 57 -172q4 19 15 59.5t18.5 73t7.5 54.5q2 4 6 8q1 5 3 16l3 16.5t3.5 14.5t5 15t6.5 14t9.5 15.5t12.5 14.5q10 -5 13 -14z" />
    <glyph glyph-name="brokenbar" unicode="&#xa6;" 
 />
    <glyph glyph-name="section" unicode="&#xa7;" horiz-adv-x="538" 
d="M369 539q0 98 -115 137q-4 1 -14 5t-17 6.5t-10 2.5t-7.5 -3t-6.5 -3q-63 -21 -82 -54.5t-19 -86.5q0 -30 12.5 -52.5t40.5 -40t51 -27t66 -24.5q0 7 4 7q49 16 73 53t24 80zM453 203q0 -30 -7 -51q-12 -42 -77 -79t-133.5 -55t-112.5 -18h-35l-4 6q0 10 6 10q23 2 47 5
t67.5 10.5t80 21.5t72.5 34t56.5 51.5t20.5 70.5q0 80 -55.5 120.5t-159.5 61.5q-3 0 -8.5 3.5t-14 8.5t-12.5 7q-55 21 -81.5 63t-26.5 84t26.5 83t77.5 60q-2 1 -22 9t-26.5 11.5t-24.5 12.5t-25.5 16.5l-18.5 18.5t-15.5 24t-4.5 27q0 27 6 51q1 4 6 13.5t6 11.5
q32 76 113 114t156 38h41v-15q-4 -4 -11 -4q-3 0 -15 1t-15 1q-66 0 -125 -33q-2 -2 -17.5 -7t-23.5 -9q-49 -28 -73.5 -69.5t-24.5 -86.5q0 -26 13.5 -46t36.5 -33t44.5 -21t48.5 -15.5t37 -11.5q5 -2 29 -8t34 -12q40 -24 60 -63.5t20 -75.5q0 -42 -24.5 -81.5
t-73.5 -64.5q162 -43 162 -190z" />
    <glyph glyph-name="dieresis" unicode="&#xa8;" 
 />
    <glyph glyph-name="copyright" unicode="&#xa9;" horiz-adv-x="634" 
d="M412 682q0 -1 -4 -5.5t-5 -6.5q-14 14 -26 20q-24 12 -43 12q-3 0 -13.5 -2t-13.5 -2t-8 1t-8 1q-17 0 -45 -14q-29 -9 -48.5 -47t-25.5 -75t-6 -68q0 -25 4 -37q0 -3 4.5 -13.5t5.5 -15.5q17 -68 119 -68q3 0 11 1t21.5 2t24.5 2q1 -1 2.5 -4.5t3.5 -4.5q0 -1 -2 -4
t-2 -4q-40 -8 -61 -8q-75 0 -112.5 40t-37.5 114q0 108 29 155q15 24 50 45t61 23q20 4 32 4q24 0 53.5 -11.5t39.5 -29.5zM514 530q0 63 -12.5 108t-57.5 122q-52 88 -127 88q-57 0 -107 -41t-81.5 -102.5t-49.5 -128.5t-18 -123q0 -28 5 -58.5t18.5 -65t34 -61t54 -44
t75.5 -17.5q69 0 147.5 69.5t104.5 145.5q14 41 14 108zM535 530q0 -80 -27 -133q-47 -92 -116.5 -151.5t-143.5 -59.5q-31 0 -70 17q-135 61 -135 252q0 53 6 94q7 46 39 119.5t70 117.5q14 17 58 45.5t71 32.5q20 4 30 4q47 0 86 -28t62.5 -69t40 -89.5t23 -87t6.5 -64.5z
" />
    <glyph glyph-name="ordfeminine" unicode="&#xaa;" 
 />
    <glyph glyph-name="guillemotleft" unicode="&#xab;" 
 />
    <glyph glyph-name="logicalnot" unicode="&#xac;" 
 />
    <glyph glyph-name="registered" unicode="&#xae;" horiz-adv-x="618" 
d="M350 631q0 28 -29.5 48.5t-56.5 20.5h-59q2 -9 2.5 -25t1.5 -20q2 -16 -1 -37.5t-3 -25.5v-64q8 2 34.5 7.5t43.5 10.5t36 20.5t25 39.5t6 25zM387 354q-9 -18 -39 -18q-2 0 -7.5 -0.5t-9 0t-8.5 2t-9 6t-7 12.5q-3 6 -12.5 50t-18.5 61q-16 41 -49 41h-20
q-1 -2 0.5 -9.5t2.5 -23t-1 -47.5q0 -49 -19 -88q-14 0 -14 10l5 23q5 23 5 33q0 24 0.5 64t1 70t0.5 31v84q0 1 1 14t1.5 24t-0.5 22q18 6 43 6q30 0 58 -6t53 -26.5t25 -51.5q0 -43 -28.5 -75t-84.5 -44q37 -14 47 -80q1 -4 9.5 -20.5t9.5 -24.5q-9 -39 34 -39h31z
M502 518q0 46 -13 100t-34 93q-3 7 -14.5 22.5t-14.5 22.5q-18 37 -54.5 59.5t-68.5 22.5q-48 0 -93.5 -34t-76.5 -84t-52 -100t-28 -90q2 0 6 -4q-12 -14 -12 -84q0 -181 127 -235q37 -14 59 -14q64 0 136 62.5t108 139.5q25 51 25 123zM520 518v-23.5t0.5 -15.5t-1.5 -13
t-4.5 -19.5t-8.5 -30.5q-13 -43 -72 -121q-42 -60 -96 -89.5t-105 -29.5q-5 0 -13.5 -0.5t-12 0t-14 3.5t-25.5 9q-137 55 -137 254q0 55 6 74q-4 8 -4 14q13 51 33 100.5t52 104t80.5 88t104.5 33.5q59 0 104.5 -41.5t68.5 -101t33.5 -110.5t10.5 -85z" />
    <glyph glyph-name="degree" unicode="&#xb0;" horiz-adv-x="342" 
d="M227 969q0 33 -23.5 89t-56.5 56q-27 0 -52.5 -34.5t-37.5 -69t-8 -39.5q-4 -16 -4 -37q0 -19 4.5 -42t22.5 -48t47 -25q31 0 57.5 29t38.5 63t12 58zM246 969q0 -58 -37.5 -112t-89.5 -54q-39 0 -65.5 36.5t-26.5 69.5v70q0 6 14 39q24 60 31 69q12 15 34.5 29t40.5 14
q27 0 48 -20.5t31 -49.5t15 -53t5 -38z" />
    <glyph glyph-name="plusminus" unicode="&#xb1;" 
 />
    <glyph glyph-name="twosuperior" unicode="&#xb2;" 
 />
    <glyph glyph-name="threesuperior" unicode="&#xb3;" 
 />
    <glyph glyph-name="acute" unicode="&#xb4;" 
 />
    <glyph glyph-name="mu" unicode="&#xb5;" 
 />
    <glyph glyph-name="paragraph" unicode="&#xb6;" horiz-adv-x="524" 
d="M244 506v115q1 11 0.5 15t-1.5 32t-1 63v299h-23q-37 0 -70 -27.5t-53 -66.5t-31.5 -75t-11.5 -58q0 -34 6 -49q9 -20 22.5 -71t34 -85.5t60.5 -60.5q26 -16 33 -17q17 -10 35 -14zM362 475l9 553h-109v-518q0 -9 21.5 -16.5t49.5 -13t29 -5.5zM395 -6q-6 -6 -8 -6
q-13 0 -19 36t-6 52v180q0 1 -2 11t-2 16q-1 13 0 33t2.5 36t1.5 17v92q-16 -1 -31.5 1.5t-37 8t-27.5 6.5l10 -399q7 -44 7 -74q0 -5 -13 -14q-10 15 -10 35v100l-12 266v60q0 3 -2 15t-2 17q-1 1 -5 2.5t-7.5 3t-6.5 3.5l-30 12q-30 12 -52 30.5t-37 44.5t-23.5 45.5
t-18.5 52t-15 44.5q-5 15 -9.5 44.5t-4.5 37.5q0 25 18 86q18 52 40.5 85t51.5 49t57.5 21t69.5 5h119v-347q0 -3 -3 -13t-3 -13v-82l-4 -479q1 -13 1.5 -38t3 -45t9.5 -38z" />
    <glyph glyph-name="periodcentered" unicode="&#xb7;" 
 />
    <glyph glyph-name="onesuperior" unicode="&#xb9;" 
 />
    <glyph glyph-name="ordmasculine" unicode="&#xba;" 
 />
    <glyph glyph-name="guillemotright" unicode="&#xbb;" 
 />
    <glyph glyph-name="onequarter" unicode="&#xbc;" 
 />
    <glyph glyph-name="onehalf" unicode="&#xbd;" 
 />
    <glyph glyph-name="threequarters" unicode="&#xbe;" 
 />
    <glyph glyph-name="questiondown" unicode="&#xbf;" horiz-adv-x="419" 
d="M336 174q0 -3 -4.5 -19t-5.5 -20q-5 -46 -34 -85.5t-71 -39.5q-29 0 -65 25.5t-58.5 50.5t-60.5 72v10q2 1 5 3t5 3q108 -143 176 -143q28 0 47.5 19.5t28 49t11.5 51t3 37.5q0 47 -16 103q-8 25 -21 47q-13 26 -42.5 48.5t-56 36.5t-49 36.5t-26.5 48.5q0 7 -1 24t-1 19
l2 309q0 1 1.5 3t3 5t2.5 6h8l6 -6l-2 -340q5 -34 30 -60t53.5 -41t58.5 -43t44 -65q29 -85 29 -145zM137 1028q0 -3 -3.5 -9.5t-4.5 -8.5h-18q-4 0 -8.5 4.5t-4.5 9.5q0 4 5.5 9.5t5.5 6.5q0 -2 3 -5t3 -5q4 0 4 6q2 0 7.5 2t8.5 2q0 -2 1 -5.5t1 -6.5z" />
    <glyph glyph-name="Agrave" unicode="&#xc0;" horiz-adv-x="473" 
d="M303 385l-88 580q-10 -35 -19 -85t-17.5 -111t-10.5 -73q-4 -22 -59 -303h59q10 0 31 -1t28 -1q3 0 10.5 3t10.5 3l4 -6q17 0 41 -4q8 0 10 -2zM379 4q0 -4 -4 -12q-4 0 -9.5 4t-5.5 8q-2 16 -22.5 158.5t-32.5 204.5q-88 10 -110 10q-3 0 -11.5 -3t-11.5 -3t-6 3t-6 3
h-51q-8 -44 -29.5 -182t-38.5 -195h-10q-2 2 -2 10q0 3 2.5 19.5t6.5 39.5t5 33q8 43 22.5 155.5t28.5 172.5q27 115 45 236q1 6 8.5 56t10.5 69.5t10.5 60.5t16 72.5t18.5 60.5q4 16 18 21q14 -46 29 -131t25 -154t25.5 -182t21.5 -152q7 -13 8 -14q1 -2 -0.5 -9.5
t-1.5 -9.5q6 -50 19 -137t22.5 -149t9.5 -64zM319 1059q0 -4 -8 -12q-17 13 -67.5 62.5t-73.5 66.5q-2 1 -5 6.5t-5 7.5q-42 30 -54 63q1 1 5 6t6 7q20 -25 30 -35q18 -18 70 -67.5t102 -104.5z" />
    <glyph glyph-name="Aacute" unicode="&#xc1;" horiz-adv-x="487" 
d="M311 387l-88 580q-16 -67 -41 -203q-2 -6 -2 -21q-3 -30 -10 -67q-53 -265 -53 -268v-15h57q12 0 32 -1t27 -1q4 0 12 3t11 3l4 -6q15 0 51 -4zM385 18l-4 -26h-8l-58 373q-8 3 -14 0q-4 0 -10 6q-14 0 -35.5 1.5t-38 3t-18.5 1.5q-3 0 -11.5 -3t-11.5 -3t-17.5 3
t-17.5 3q-18 0 -26 -2q-7 -36 -19.5 -117t-24.5 -147.5t-24 -110.5h-8q-6 6 -6 10q0 3 18 96q16 70 25.5 155.5t17.5 119.5q2 7 4 26.5t4 28.5q32 133 43 221q32 225 64 330q1 4 16 19q17 -40 23 -78q22 -112 47 -277q6 -44 17.5 -133t17.5 -133q0 -1 3 -5.5t3 -6.5
q11 -102 29 -219.5t20 -135.5zM342 1251l-203 -207q-3 0 -14 11q14 15 42.5 45t49.5 53t33 39q12 15 38.5 37t43.5 31q1 -1 5 -4.5t5 -4.5z" />
    <glyph glyph-name="Acircumflex" unicode="&#xc2;" horiz-adv-x="483" 
d="M305 387h8l-90 578q-10 -35 -19 -85t-17.5 -111t-10.5 -73q-4 -22 -59 -303h59q12 0 32.5 -1t27.5 -1q4 0 10.5 3t9.5 3l4 -6q9 0 26 -2t19 -2zM387 4q0 -4 -4 -12q-3 0 -8.5 4t-5.5 8q-28 223 -56 363q-87 10 -110 10q-3 0 -11.5 -3t-11.5 -3t-6 3t-6 3h-51
q-9 -51 -22 -136.5t-23 -141t-23 -99.5h-10q-2 2 -2 10q0 19 10 64q31 169 33 219q0 3 2 17t2 20q2 13 26 132.5t31 158.5q6 35 14.5 96.5t14 93.5t16.5 80t25 94q4 16 18 21q20 -73 37.5 -176t37 -247t24.5 -177q0 -1 1.5 -10t4 -14.5t6.5 -8.5q0 -2 -2 -9.5t-2 -9.5
q6 -50 19 -137t22.5 -149t9.5 -64zM328 1053l-6 -6q-4 2 -6.5 6.5t-4 8.5t-2.5 5q-6 17 -22.5 46.5t-20.5 37.5q-2 4 -11.5 29.5t-20 41.5t-27.5 27q-5 -11 -18.5 -40.5t-22.5 -47.5q-2 -4 -10.5 -30.5t-20 -52t-24.5 -36.5q-1 1 -3.5 2t-4 2.5t-1.5 4.5q0 2 5 9t12 17.5
t10 20.5q24 75 70 172q22 -11 39 -32.5t24 -36.5t17 -42q5 -15 21.5 -41.5t21.5 -38.5q1 -3 3 -13t3 -13z" />
    <glyph glyph-name="Atilde" unicode="&#xc3;" horiz-adv-x="468" 
d="M287 387h8l-88 576q-15 -53 -47 -267q-6 -38 -21 -111t-27 -127.5t-12 -56.5v-8h60q11 0 31 -1t26 -1q4 0 12 2t11 2l4 -4q6 0 16 -1.5t17.5 -2.5t9.5 0zM371 4q0 -9 -6 -12h-9l-59 375q-72 10 -113 10q-3 0 -11 -3t-11 -3t-5 3t-5 3h-52l-63 -375l-5 -1q-4 -1 -9 -1
q-3 3 -3 12q0 3 2.5 16t5.5 31.5t5 28.5q2 12 13.5 74t14.5 94q4 41 19 121q4 24 15 81t20 105.5t14 87.5q2 15 8.5 58.5t9.5 62.5t9.5 56.5t11.5 60.5t13 51.5t16 52.5q5 9 16 13q10 -31 20.5 -83t22 -125.5t19.5 -131.5t20 -149t18 -130q7 -14 9 -16q1 -4 -1 -11t-2 -8
q6 -51 19 -137t23 -147.5t10 -63.5zM348 1163q0 -32 -16 -66t-47 -34q-25 0 -44.5 18.5t-30 41t-29.5 41t-44 18.5q-13 0 -29 -16t-27 -35t-20 -36t-10 -18h-8q-4 4 -4 8t10.5 30.5t18.5 37.5q41 49 75 49q27 0 46.5 -20.5t37.5 -49.5t37 -40q4 -1 12 -6t11 -5q11 0 19.5 9
t13 22.5t7 26t4 23.5t1.5 12h14q2 -2 2 -11z" />
    <glyph glyph-name="Adieresis" unicode="&#xc4;" horiz-adv-x="468" 
d="M299 387l-88 580q-16 -67 -41 -203q-2 -6 -2 -21q-7 -52 -16 -86q-7 -31 -16.5 -92t-14.5 -86l-17 -71v-15h58q12 0 32 -1t27 -1q4 0 12 3t11 3l4 -6q19 0 51 -4zM373 18l-4 -26h-9l-57 373q-7 3 -14 0q-4 0 -10 6q-14 0 -35.5 1.5t-38.5 3t-19 1.5q-3 0 -10 -3t-10 -3
t-18.5 3t-18.5 3h-11q-14 1 -17 -3.5t-6 -29.5q0 -7 -1 -12q-23 -186 -59 -332h-8q-7 7 -7 10q0 2 3.5 17t7.5 35l6 30q6 36 21 157t32 187q26 107 45 236q34 221 62 315q1 4 16 19q4 -3 6 -5q33 -133 66 -350q8 -48 17.5 -141t14.5 -127q1 -1 3.5 -5t3.5 -5q3 -38 11 -98
t20 -137.5t18 -119.5zM160 1141q-4 -4 -5.5 -8.5t-0.5 -8.5t0 -8q-6 0 -9 2t-6 2t-3 -2t-3 -2t-3 -1t-3 -1t-7.5 4t-11.5 12t-10 11q6 -2 19 -2q2 0 3 2t2 5t3 5t5 3t7 1.5t6 1.5q4 -13 17 -16zM317 1139q-6 -6 -6 -21q-4 0 -13.5 -3t-12.5 -3q-1 5 -7 14.5t-6 12.5
q0 8 13 30q0 -6 2 -6q3 -3 9.5 -7.5t11.5 -8.5t9 -8z" />
    <glyph glyph-name="Aring" unicode="&#xc5;" horiz-adv-x="479" 
d="M301 387l-86 580q-21 -76 -34.5 -170.5t-26.5 -151.5q-5 -21 -19 -117q-3 -17 -10 -46t-11.5 -49.5t-4.5 -22.5v-17h55q2 0 15 1t18 1q20 -4 28 -4q3 0 11.5 2t11.5 2l4 -4q17 0 49 -4zM287 1112q0 20 -17 65.5t-43 45.5q-32 0 -56 -50.5t-24 -78.5q0 -13 2 -31t15.5 -42
t36.5 -24q5 0 10 4.5t6 4.5l4 -2q11 0 26 17t25 33l9 17q1 5 2.5 15t2.5 16.5t1 9.5zM377 8q0 -8 -4 -16h-8l-58 373q-8 3 -14 0q-2 -2 -10 6q-14 0 -35.5 1.5t-38.5 3t-19 1.5q-3 0 -11 -3t-11 -3t-17.5 3t-17.5 3q-19 0 -27 -4q-7 -37 -19 -116.5t-24 -146t-24 -110.5h-10
l-2 3q-2 3 -2 7q0 2 7.5 42.5t17.5 94t13 82.5q2 14 5.5 47t5.5 46q3 24 26.5 136.5t34.5 182.5q33 231 64 338q-42 7 -58 48.5t-10 84.5q-4 0 -4 6q0 7 39 88q4 6 20.5 17.5t30.5 15.5h10q28 0 46.5 -27.5t24 -54t5.5 -45.5q0 -40 -20.5 -75.5t-57.5 -55.5
q10 -37 21.5 -94.5t23.5 -135.5t19.5 -129.5t19 -139t13.5 -101.5q2 -4 6 -8q1 -31 25 -193.5t24 -171.5z" />
    <glyph glyph-name="AE" unicode="&#xc6;" horiz-adv-x="557" 
d="M127 477l119 10v142q0 3 -2 9.5t-2 8.5q0 16 1 51l1 35v219q-17 -37 -34 -97t-25.5 -100t-29.5 -142.5t-28 -135.5zM473 981q-1 -1 -4 -3.5t-6 -2.5h-62q-22 0 -75.5 -6t-57.5 -8q-4 -8 -4 -19v-453q96 11 109 11q36 0 49 -13v-10q-6 1 -19.5 2t-19.5 2q-1 0 -5 -2t-7 -2
t-5.5 2t-5.5 2q-2 0 -18.5 -2.5t-39 -5.5t-36.5 -4l-6 -348q0 -79 14 -113h193q4 -2 6 -4q0 -6 -6 -12q-74 -4 -154 -4q-42 0 -49 4q-14 9 -21 68q-1 3 -1 6l4 399q-2 2 -10 2q-3 0 -13.5 -4t-13.5 -4q-1 0 -8 2t-11 2q-1 0 -13 -1t-28 -2t-26 -1q-5 -8 -6.5 -21.5t-2 -30.5
t-1.5 -26q-8 -36 -22 -114t-29 -141t-37 -126h-11q-4 4 -4 6t9 32.5t17.5 65t6.5 46.5v4q25 71 51 274l21 84q4 23 12 74t12 71q1 7 9.5 34.5t11.5 39.5q4 15 13 60.5t20.5 84t29.5 78.5q11 27 25 29q71 12 184 12h37l2 -5q2 -4 2 -9z" />
    <glyph glyph-name="Ccedilla" unicode="&#xc7;" horiz-adv-x="425" 
d="M377 926v-13l-6 -4q-5 0 -9.5 5.5t-10 15.5t-9.5 16q-21 35 -63 45h-23q-41 0 -92 -35q-44 -32 -72 -127q-40 -146 -43 -303l-2 -116l3 -42q3 -42 3 -53q0 -21 1.5 -42.5t6 -51.5t12 -56.5t21 -54t31 -46.5t44 -31.5t58.5 -12.5q19 0 76 17q4 -4 4 -8q0 -11 -36 -20
t-46 -9q-8 0 -10 2q-14 -33 -14 -47v-16q7 -1 25 -2.5t26 -2.5q16 -50 16 -75q0 -20 -22.5 -32.5t-36.5 -12.5q-4 0 -18.5 6.5t-18.5 11.5v10q2 0 5.5 1t6.5 1q15 -10 25 -10q23 0 30 9t7 30q0 11 -4 43q-16 2 -60 2q-2 4 -2 21q0 7 15 65q-54 8 -94.5 61.5t-49.5 106.5
q-6 27 -14 83.5t-8 63.5v185q0 1 2.5 28.5t5.5 64t4 56.5q1 9 3 44t3 48q1 5 7 21t7 25q15 86 67.5 153.5t127.5 67.5q2 0 14 -2t17 -2q17 3 53.5 -30.5t36.5 -51.5z" />
    <glyph glyph-name="Egrave" unicode="&#xc8;" horiz-adv-x="362" 
d="M283 993q-1 0 -4 -3t-7 -3h-61q-22 0 -75.5 -6t-57.5 -8q-6 -12 -6 -117l2 -364h8q27 0 62.5 9t56.5 9q25 0 30 -12v-11q-2 0 -9.5 3.5t-10.5 3.5t-5 -3.5t-5 -3.5t-5.5 2.5t-5.5 2.5t-15 -3t-28 -6.5t-26 -5.5q-1 -1 -4 -3.5t-6 -2.5t-5.5 2t-5.5 2q-11 0 -26 -6v-115
q0 -1 1 -16.5t1.5 -29.5t-0.5 -29q-1 -19 -3 -54t-3.5 -60.5t-1.5 -27.5q0 -81 14 -117h174l6 -4q0 -6 -6 -12q-56 -6 -135 -6q-40 0 -49 4q-8 3 -15.5 42.5t-7.5 55.5v617q0 1 2 16t2 19v239l203 17q17 0 23 -2q0 -2 2 -7t2 -6zM252 1069q-1 -1 -4 -5t-4 -5
q-22 15 -113.5 103t-91.5 104q0 2 8 10q13 -19 39 -44.5t59.5 -53.5t40.5 -35q48 -56 66 -74z" />
    <glyph glyph-name="Eacute" unicode="&#xc9;" horiz-adv-x="354" 
d="M272 993q-6 -6 -10 -6h-61q-21 0 -75.5 -5.5t-57.5 -10.5q-7 -21 -7 -105l2 -374h9q28 0 63 9t58 9t28 -12v-11q-2 0 -9.5 3.5t-10.5 3.5t-4 -3.5t-4 -3.5t-6.5 2.5t-6.5 2.5t-15 -3t-28 -6.5t-26 -5.5q-6 -6 -11 -6q-3 0 -4 2t-4 2q-14 0 -29 -6v-158q0 -3 -2 -88
t-2 -88q0 -84 15 -115h192q4 -2 6 -4q0 -9 -6 -12q-56 -6 -155 -6q-34 0 -50 4q-10 8 -16 47t-6 78l8 502q-4 12 -4 43v76v243l188 17h37l2 -5q2 -5 2 -10zM258 1272l12 -12q-4 -4 -18.5 -16.5t-18.5 -16.5q-4 0 -8 -2q-109 -124 -159 -170q-7 0 -15 12q56 55 100 104
t62.5 67t44.5 34z" />
    <glyph glyph-name="Ecircumflex" unicode="&#xca;" horiz-adv-x="356" 
d="M55 995l226 13q0 -15 -2 -21h-68q-24 0 -102 -8q-9 0 -29 -8q-1 -4 -2 -13.5t-2 -13.5l2 -450q23 -4 66.5 6t60.5 10q20 0 28 -8v-15q-11 7 -22 7q-3 0 -3 -3.5t-3 -3.5t-5 2.5t-5 2.5q-2 0 -14.5 -3t-30 -6.5t-29.5 -5.5l-1 -3q-1 -3 -5 -3q-3 0 -6.5 2t-6.5 2
q-8 0 -13 -1.5t-7.5 -3t-4 -7t-1.5 -7.5v-11v-11v-110q0 -5 1 -28.5t0 -39.5t-5 -35l-2 -92q-1 -37 4 -70.5t10 -38.5h176l2 -4q2 -5 2 -10q-78 -8 -141 -8q-35 0 -53 6q-2 7 -9.5 38t-7.5 38v653q0 5 4 21q0 3 -1 13t-1 13v215zM272 1075v-14h-14q3 8 -6 29
q-5 11 -20.5 35.5t-20.5 37.5q-4 9 -10 26t-10.5 27.5t-14.5 23.5t-24 22q-6 -15 -22 -50t-21 -51q-1 -3 -10.5 -30.5t-18 -45t-21.5 -32.5q-8 4 -12 8q21 32 50 108t48 113q44 -19 70 -78q1 -2 6 -20.5t10 -26.5q5 -11 16 -31.5t18 -34t7 -16.5z" />
    <glyph glyph-name="Edieresis" unicode="&#xcb;" horiz-adv-x="346" 
d="M45 995l225 13q0 -15 -2 -21h-65q-27 0 -105 -8q-8 0 -28 -8q-1 -5 -2 -15.5t-2 -15.5l2 -446q24 -5 69.5 5.5t57.5 10.5q22 0 28 -8v-15q-11 7 -18 7q-3 0 -4 -3.5t-4 -3.5q-4 0 -7 2.5t-6 2.5t-15 -3t-28 -6.5t-26 -5.5q-6 -6 -11 -6q-3 0 -5 2t-5 2q-22 0 -26.5 -7
t0 -20.5t-1.5 -33.5l2 -150l-9 -135q-2 -25 13 -111h182v-12q-16 -4 -25 -4l-114 -4q-38 0 -54 6q-3 4 -10.5 38.5t-7.5 41.5v649q0 5 4 21q0 8 -1 27.5t-1 21.5v192zM102 1149q-5 0 -4.5 -10.5t0.5 -12.5q-3 -1 -6.5 -1t-7.5 0.5t-6 0.5l-6 -6q-7 3 -29 29q4 -4 16 -4
q1 0 7 12q6 6 18 6q3 0 6 -2.5t6.5 -6.5t5.5 -5zM258 1145q0 -2 -1.5 -9.5t-0.5 -9.5q-3 0 -27 -8q-1 5 -7.5 15.5t-6.5 13.5q0 11 12 29q0 -2 2.5 -6.5t1.5 -6.5q1 -1 8.5 -3t13 -5.5t5.5 -9.5z" />
    <glyph glyph-name="Igrave" unicode="&#xcc;" horiz-adv-x="204" 
d="M82 1010h12q0 -25 -5 -90t-5 -101l-2 -463l-10 -356q-1 1 -7 0.5t-12 1.5l10 436v391q0 103 19 181zM129 1069l-12 -12q-15 13 -65.5 63.5t-71.5 63.5q-2 1 -5.5 6.5t-5.5 7.5q-53 53 -53 66q0 4 8 12q22 -28 33 -35q4 -8 4 -10q6 -5 45 -38t60 -54q8 -8 29.5 -33
t33.5 -37z" />
    <glyph glyph-name="Iacute" unicode="&#xcd;" horiz-adv-x="219" 
d="M82 1010h12q0 -25 -5 -90t-5 -101l-2 -463l-10 -356q-1 1 -7 0.5t-12 1.5l10 436v391q0 103 19 181zM213 1311l12 -11q-14 -20 -59.5 -71.5t-56.5 -73.5q-1 -2 -7 -5.5t-8 -6.5q-9 -13 -30.5 -34.5t-30.5 -21.5q-3 0 -5.5 2t-5.5 4t-4 3q29 23 35 34q1 0 4.5 2.5t5.5 2.5
q8 11 24.5 33.5t30.5 40t29 34.5q8 10 32.5 33.5t33.5 34.5z" />
    <glyph glyph-name="Icircumflex" unicode="&#xce;" horiz-adv-x="188" 
d="M80 1014l6 -4q-7 -36 -9 -103t-5 -94l2 -475q0 -1 -4 -26.5t-4 -37.5l-5 -266l-6 -4q-8 0 -12 4l10 592q-6 48 -6 57q0 3 3 15.5t3 15.5v170l15 156h12zM186 1077v-10q-4 0 -10 -2q-3 6 -8 20.5t-8 20.5q-33 57 -35 63q-4 7 -11.5 28.5t-18.5 39.5t-29 31q-5 -8 -12 -28
t-13 -30q-18 -30 -33 -76t-39 -73q-1 1 -3 1.5t-3.5 2t-1.5 4.5q0 2 5 12.5t12 25t10 26.5q8 30 36.5 88t32.5 67q29 -16 45 -35q10 -13 16.5 -26.5t11.5 -30t9 -25.5q2 -4 14.5 -24t22.5 -40t10 -30z" />
    <glyph glyph-name="Idieresis" unicode="&#xcf;" horiz-adv-x="200" 
d="M84 1010h10q0 -25 -4 -89.5t-4 -99.5l-4 -465l-10 -354h-17l11 434v395q0 39 7 103.5t11 75.5zM41 1137q-4 -3 -5.5 -7t-0.5 -8t0 -8l-17 2q-6 -6 -10 -6q-3 0 -7.5 5t-10.5 12.5t-10 11.5q3 -2 14 -2q2 0 3.5 1t2.5 2.5t2.5 3.5t3.5 3q2 2 5 3t7.5 1.5t6.5 1.5
q5 -11 16 -16zM199 1135q-6 -3 -6 -21q-1 0 -2 1t-5 1q-3 0 -10.5 -4t-9.5 -4q-1 5 -6.5 15.5t-5.5 13.5t10 28q-2 -4 1.5 -7t14 -9t19.5 -14z" />
    <glyph glyph-name="Eth" unicode="&#xd0;" 
 />
    <glyph glyph-name="Ntilde" unicode="&#xd1;" horiz-adv-x="485" 
d="M371 29q0 -8 -6.5 -20.5t-14.5 -12.5h-14l-256 973q-4 -2 -4 -11l-13 -960q-1 0 -5.5 -1t-6.5 -1q-4 10 -4 31v22q6 288 6 311q0 14 -2 43.5t-2 30.5v80q0 21 4 53l2 369q2 7 3 29t6 35.5t20 13.5q8 0 8 -4q21 -84 67.5 -275t69.5 -278q21 -80 65 -235.5t50 -178.5
l-14 473l-4 457q0 31 4 41q3 1 5.5 -1.5t4 -7.5t2 -9t1.5 -10.5t1 -8.5l10 -795q0 -22 4 -58.5t8.5 -65t4.5 -29.5zM362 1169q0 -29 -16 -65.5t-47 -36.5q-23 0 -42.5 19t-38.5 49t-32 41q-12 12 -32 12q-22 0 -51 -41.5t-29 -54.5q0 -3 -15 -13q-1 2 -4 3.5t-4 2.5
q14 47 43 84t64 37q26 0 43.5 -19t35.5 -47t39 -40q3 -2 11.5 -8.5t11.5 -6.5q26 0 36.5 40.5t6.5 52.5q2 0 4.5 1t5.5 1q10 0 10 -11z" />
    <glyph glyph-name="Ograve" unicode="&#xd2;" horiz-adv-x="468" 
d="M348 399v269q0 66 -22 206q-7 39 -29 72q-29 49 -74 49q-20 0 -41 -11t-32 -32q-24 -42 -40 -93t-21.5 -85.5t-13 -95t-12.5 -88.5q-8 -50 -8 -74q0 -2 -1.5 -26t-3 -55.5t-1.5 -49.5l-2 -135q0 -32 0.5 -45.5t5.5 -46.5t15 -52.5t32 -42.5t54 -36q11 -5 34.5 -10
t30.5 -5q40 0 68 53t40 129t16.5 127t4.5 78zM367 721v-352q0 -3 -1.5 -16t-3 -31.5t-2.5 -28.5q0 -3 -3 -31.5t-5 -44.5t-8 -48t-12 -52.5t-17 -46.5t-23.5 -41t-30.5 -26t-40 -11q-58 0 -114 40t-70 109q-6 24 -6 31v182l6 172q0 25 22.5 179.5t34.5 181.5q53 129 129 129
q43 0 74.5 -37.5t45 -93t19 -96.5t5.5 -68zM309 1071l-12 -10q-12 11 -64 62.5t-75 64.5l-4 5q-4 5 -7 9q0 1 -14.5 15t-27.5 29.5t-13 21.5q0 5 10 10q4 -3 18.5 -21t18.5 -22q16 -15 53 -45.5t52 -46.5q8 -8 30.5 -34t34.5 -38z" />
    <glyph glyph-name="Oacute" unicode="&#xd3;" horiz-adv-x="471" 
d="M348 383v315q0 13 -4.5 47.5t-9.5 63.5l-4 29q0 27 -9.5 63t-35.5 70.5t-62 34.5q-38 0 -66 -33t-43 -85t-23.5 -101.5t-14 -98.5t-8.5 -59q-15 -66 -15 -107l-8 -286q-1 -29 3.5 -57.5t17 -60t39 -55.5t65.5 -34q38 -11 47 -11q38 0 66.5 49.5t41 119t18 120t5.5 76.5z
M365 745l2 -325q-3 -14 -5.5 -69t-8.5 -109.5t-18.5 -111.5t-43 -92.5t-74.5 -35.5q-39 0 -67 12q-46 21 -74 52.5t-36 64t-11.5 67.5t0.5 62l8 262q0 28 8 78q4 25 12 97.5t16.5 121.5t20.5 80q19 49 51.5 86t77.5 37q27 0 49 -13.5t36 -37t24.5 -49.5t16.5 -57t9 -53
t5 -43.5t2 -23.5zM360 1262q-29 -15 -73.5 -67.5t-61.5 -68.5q-51 -46 -71 -67l-13 10q13 17 63 68t64 71q2 5 37 35.5t43 30.5q3 0 5 -2t4 -5.5t3 -4.5z" />
    <glyph glyph-name="Ocircumflex" unicode="&#xd4;" horiz-adv-x="473" 
d="M350 508l-2 194q0 3 -6 78q0 8 -4 26t-4 23q-1 19 -7 45t-17.5 57.5t-34.5 53t-52 21.5q-28 0 -56 -25.5t-40 -60.5q-19 -53 -29 -99t-19 -120t-13 -99q-9 -56 -9 -78q0 -60 -6 -116l-2 -144q-2 -30 0 -61t8.5 -58.5t26 -54.5t51.5 -47q45 -25 86 -25q98 0 123 310
q6 79 6 180zM369 711v-320q0 -35 -13 -133l-3 -26q-3 -26 -6.5 -51t-13.5 -59t-23.5 -59t-37 -43t-53.5 -18q-54 0 -111 39t-71 106q-8 41 -8 99l4 133q3 67 6 141l-1 3q-1 3 -1 7q0 27 18 138q10 74 33 206q1 5 6.5 18t15 32t13.5 28q37 70 100 70q45 0 77 -39.5t45.5 -98
t18.5 -100.5t5 -73zM313 1079l-4 -14h-8q-3 23 -14 41q-4 7 -18 29.5t-19 33.5q0 1 -9 26.5t-19 42.5t-27 28q-25 -43 -51.5 -115t-45.5 -90l-12 6q15 20 23.5 40t15.5 43.5t12 35.5q3 6 20 43.5t25 56.5q46 -7 84 -112q2 -6 23 -42t24 -53z" />
    <glyph glyph-name="Otilde" unicode="&#xd5;" horiz-adv-x="487" 
d="M362 393v275q0 37 -4 81t-15 104t-38.5 99t-66.5 39q-47 0 -79 -51t-43 -109t-20 -127.5t-12 -80.5q-14 -61 -14 -111q0 -1 -2 -25.5t-3.5 -56t-1.5 -51.5l-2 -135q-3 -26 0 -57t10.5 -59t32 -56.5t64.5 -48.5q30 -15 63 -15q40 0 69 52.5t41 127.5t16.5 126t4.5 79z
M381 721v-359q0 -29 -14 -139l-3 -17q-2 -17 -4 -30.5t-7.5 -37.5t-11.5 -42.5t-17 -39.5t-23 -35t-30 -23.5t-38 -9.5q-32 0 -70.5 16.5t-72 52t-39.5 80.5q-1 3 -3 10t-3.5 12.5t-1.5 8.5v178l8 176q0 20 22 177t33 184q57 129 132 129q35 0 62 -26.5t41.5 -62.5t24 -80.5
t12.5 -74t3 -47.5zM381 1153v-12q0 -13 -5.5 -34.5t-22 -43t-38.5 -21.5q-25 0 -44.5 19t-31 41.5t-29.5 41.5t-40 19q-18 0 -39.5 -27t-30 -45t-14.5 -34q-14 2 -16 4q13 50 30 74q12 17 34 31t42 14q21 0 38 -13.5t26.5 -30.5t25 -36.5t33.5 -28.5q16 -8 18 -8q43 0 43 90
q8 4 21 0z" />
    <glyph glyph-name="Odieresis" unicode="&#xd6;" horiz-adv-x="481" 
d="M358 383v287q0 34 -4 77.5t-15.5 104.5t-39 101t-66.5 40q-35 0 -62 -31t-42.5 -82t-24.5 -96t-15 -93t-7 -54q-16 -99 -16 -125q0 -108 -5 -141l-4 -133q-1 -31 1 -54t10.5 -56.5t32.5 -60.5t61 -44q14 -5 38.5 -11t30.5 -6q39 0 67 53t39.5 128t16 124t4.5 72zM377 725
v-369q0 -36 -12 -118q0 -1 -2 -18t-4 -32.5t-7.5 -40t-11.5 -45t-16.5 -42.5t-23.5 -37t-31.5 -25t-39.5 -10q-49 0 -86 22q-41 25 -65.5 58.5t-30 64.5t-7.5 64.5t1 58.5l6 264q0 24 22 176.5t35 184.5q53 129 132 129q42 0 72.5 -36t44 -88.5t19 -93t5.5 -67.5zM176 1135
q-5 -15 -2 -27q-6 0 -10 1t-6 1q-3 0 -5.5 -2t-5.5 -2q-6 0 -28 27q6 -3 14 -3q3 0 6 6t4 7q2 1 6.5 1.5t7.5 1.5t5 3q9 -14 14 -14zM336 1128q-7 -7 -4 -20l-2 1q-2 1 -6 1q-3 0 -10 -3t-9 -3q-1 4 -7.5 15t-6.5 14q0 2 2 6.5t5 11t5 10.5q0 -6 4 -14q21 -7 29 -19z" />
    <glyph glyph-name="multiply" unicode="&#xd7;" 
 />
    <glyph glyph-name="Oslash" unicode="&#xd8;" horiz-adv-x="473" 
d="M346 379v315q0 25 -9.5 102t-14.5 89q-3 16 -21 55q-1 -5 -5.5 -27t-6.5 -30q-32 -109 -35 -125q-6 -24 -84 -404q-5 -30 -22.5 -101t-32.5 -128.5t-15 -58.5q0 -10 37 -28t51 -20q4 0 15 -1t14 -1q38 0 66 48.5t40.5 118t17.5 119t5 77.5zM289 958q0 16 -26.5 28.5
t-41.5 12.5q-58 0 -90 -71q-23 -47 -35 -97t-20.5 -126.5t-12.5 -100.5q-12 -81 -12 -86q0 -125 -4 -158l-2 -133q0 -102 41 -143q17 84 56.5 262t62.5 293q4 25 20 70q5 16 17 77zM362 743l5 -329q-2 -10 -5 -62t-9 -108t-19.5 -114.5t-43.5 -96t-73 -37.5
q-24 0 -64.5 15.5t-56.5 29.5q-2 -6 -4 -18t-2 -13q-3 -2 -9 -1.5t-9 3.5q0 7 4 24t4 19q0 1 -8 14t-18 29.5t-13 26.5q-18 44 -14 131l8 272q0 33 14 105q2 9 9 68t16 104t26.5 99.5t48.5 85t72 30.5q42 0 76 -37q14 38 27 57q10 0 14 -12q-27 -54 -27 -63q0 -3 7 -20
t15.5 -38.5t10.5 -29.5q0 -1 1 -6t1 -9q8 -37 16 -119z" />
    <glyph glyph-name="Ugrave" unicode="&#xd9;" horiz-adv-x="376" 
d="M268 993q4 -187 -4 -522l-6 -278q2 -8 -6 -54.5t-32.5 -95.5t-59.5 -49q-41 0 -69.5 34.5t-40 86.5t-15.5 86t-4 59q0 3 2 28.5t2 28.5v228q0 3 1 22t2.5 48t2.5 44q7 162 25 349q1 1 4 5t4 5q4 -2 7 -5t4 -5l1 -2q0 -2 -2.5 -30t-6 -67.5t-5.5 -64.5q-4 -41 -4 -150
q0 -8 -7.5 -65t-7.5 -131v-301q0 -15 6 -43t17 -60.5t33 -56t49 -23.5q19 0 35.5 21t23.5 45q29 92 19 207q-2 17 3 69t5 72l4 578q0 6 10 16q10 -5 10 -29zM252 1079q-2 -1 -5 -5t-5 -5q-17 10 -71 61.5t-69 57.5q-2 1 -5.5 6.5t-6.5 7.5q-6 3 -29.5 27.5t-23.5 34.5
q0 3 2 5t4.5 3t3.5 2q24 -30 75 -71t64 -54q8 -8 31 -33t35 -37z" />
    <glyph glyph-name="Uacute" unicode="&#xda;" horiz-adv-x="380" 
d="M274 989q0 -3 -1 -12.5t-1 -13.5q-2 -39 -1.5 -166.5t-2.5 -347.5l-4 -261q0 -7 -4 -32.5t-14 -64t-31.5 -67t-50.5 -28.5q-41 0 -69 34t-39.5 84.5t-16 86t-4.5 61.5q0 3 3 26.5t3 26.5v220l33 483q1 0 5 1t5 1q6 -4 6 -16q0 -2 -2.5 -28.5t-6 -66t-5.5 -69.5
q-2 -41 -1 -85.5t-1 -62.5q0 -7 -4 -34.5t-8.5 -74.5t-4.5 -102v-276q0 -16 5.5 -44t17 -62t33.5 -58.5t51 -24.5q15 0 28.5 14t22 33t14.5 39t8.5 33t2.5 15q9 15 5.5 88t-3.5 79l6 105l6 582q0 10 8 18q12 -7 12 -33zM303 1264l-203 -207q-7 0 -12 10q26 26 72.5 78
t80.5 87t52 42q1 -2 5 -5t5 -5z" />
    <glyph glyph-name="Ucircumflex" unicode="&#xdb;" horiz-adv-x="370" 
d="M262 989q0 -308 -4 -518l-6 -287q0 -25 -9.5 -68.5t-33.5 -86.5t-55 -43q-39 0 -67 32t-40 80t-17 85.5t-5 66.5q0 3 2 29.5t2 29.5v232q0 3 1 21.5t2.5 47t2.5 41.5q3 130 24 348q1 1 4.5 5.5t4.5 5.5q12 -6 12 -15l-21 -237q-2 -26 -1.5 -37t2 -18.5t1.5 -8.5l-14 -202
v-308q0 -23 10 -62t35.5 -77.5t59.5 -38.5q24 0 45 38t24 58q16 82 10.5 125.5t-2.5 79.5l9 117l4 571q0 10 10 17q10 -6 10 -23zM272 1063l-6 -6q-5 3 -8 8t-4 13l-2 7q-7 16 -24 45t-23 41q-1 2 -6 16.5t-10 26t-15 26t-22 22.5q-5 -8 -11.5 -28t-11.5 -28
q-16 -25 -33 -76t-41 -77q-1 1 -3 1.5t-3.5 2t-1.5 4.5q0 1 5.5 11t13 25t10.5 27q6 23 16.5 48t27.5 60t23 48q50 -19 78 -106q2 -8 19.5 -37t23.5 -43q3 -4 8 -31z" />
    <glyph glyph-name="Udieresis" unicode="&#xdc;" horiz-adv-x="372" 
d="M266 993q0 -102 -6 -532l-4 -268q0 -3 -2.5 -21t-9.5 -48.5t-17 -58t-28.5 -47.5t-40.5 -20q-42 0 -71 34.5t-40.5 86.5t-15.5 86t-4 59q0 3 3 26.5t3 26.5v226q0 3 1 22.5t2.5 49.5t2.5 44q8 176 24 349q0 5 9 14q10 -6 10 -16q0 -2 -2.5 -31t-6 -69t-5.5 -62
q-2 -45 -1.5 -85.5t-0.5 -62.5q-1 -8 -5.5 -39.5t-8 -75.5t-3.5 -94v-282q0 -15 6 -43t17.5 -62.5t33.5 -59t50 -24.5q7 0 14.5 4t13 9t11 14t9 15.5t8 17.5t6 16t4.5 14l3 9q10 36 11.5 77t-1.5 78t-2 47l9 109l4 580q0 10 8 18q4 -4 7 -11.5t4 -13.5zM109 1155
q-2 -2 -3.5 -9t-2 -12.5t-3.5 -5.5q-4 0 -11.5 -1t-10.5 -1t-7 3t-6.5 6t-6.5 9t-5 7h13q2 0 3 2t2 5t3 5q6 6 16 6q3 0 9.5 -7t9.5 -7zM266 1149q0 -1 -3 -4t1 -12q-5 0 -14 -5l-10 -4q-19 25 -19 27q0 6 10 31q3 -9 19 -17t16 -16z" />
    <glyph glyph-name="Yacute" unicode="&#xdd;" 
 />
    <glyph glyph-name="Thorn" unicode="&#xde;" 
 />
    <glyph glyph-name="germandbls" unicode="&#xdf;" horiz-adv-x="444" 
d="M342 309q0 -19 -5.5 -62.5t-18 -104.5t-39.5 -104.5t-64 -43.5q-23 0 -55.5 28.5t-32.5 53.5q0 6 8 6q2 0 14.5 -18t31 -36t34.5 -18q32 0 55.5 42t34 100t15 98t4.5 55q0 60 -15.5 97.5t-37.5 52.5t-44 24.5t-37.5 24.5t-15.5 41q0 10 6 21.5t12 19t23 26t27 29.5
q30 35 30 137q0 209 -112 209q-37 0 -59.5 -32.5t-28.5 -86.5l-2 -157q4 -40 4 -66v-129l-21 -352q0 -1 1 -32t1 -46q1 -11 3 -29.5t3.5 -32.5t1.5 -16t-4 -14q-9 0 -12 6q-12 59 -12 160l4 198l14 131l-4 304v9q-3 206 111 206q42 0 70.5 -25.5t41 -67t17 -74.5t4.5 -65
q0 -47 -9.5 -83t-23.5 -56t-28 -35t-23.5 -28.5t-9.5 -28.5q0 -24 25 -42.5t52 -32.5t29 -24q1 -5 8 -14t9 -12q20 -38 20 -111z" />
    <glyph glyph-name="agrave" unicode="&#xe0;" horiz-adv-x="473" 
d="M303 385l-88 580q-10 -35 -19 -85t-17.5 -111t-10.5 -73q-4 -22 -59 -303h59q10 0 31 -1t28 -1q3 0 10.5 3t10.5 3l4 -6q17 0 41 -4q8 0 10 -2zM379 4q0 -4 -4 -12q-4 0 -9.5 4t-5.5 8q-2 16 -22.5 158.5t-32.5 204.5q-88 10 -110 10q-3 0 -11.5 -3t-11.5 -3t-6 3t-6 3
h-51q-8 -44 -29.5 -182t-38.5 -195h-10q-2 2 -2 10q0 3 2.5 19.5t6.5 39.5t5 33q8 43 22.5 155.5t28.5 172.5q27 115 45 236q1 6 8.5 56t10.5 69.5t10.5 60.5t16 72.5t18.5 60.5q4 16 18 21q14 -46 29 -131t25 -154t25.5 -182t21.5 -152q7 -13 8 -14q1 -2 -0.5 -9.5
t-1.5 -9.5q6 -50 19 -137t22.5 -149t9.5 -64zM319 1059q0 -4 -8 -12q-17 13 -67.5 62.5t-73.5 66.5q-2 1 -5 6.5t-5 7.5q-42 30 -54 63q1 1 5 6t6 7q20 -25 30 -35q18 -18 70 -67.5t102 -104.5z" />
    <glyph glyph-name="aacute" unicode="&#xe1;" horiz-adv-x="487" 
d="M311 387l-88 580q-16 -67 -41 -203q-2 -6 -2 -21q-3 -30 -10 -67q-53 -265 -53 -268v-15h57q12 0 32 -1t27 -1q4 0 12 3t11 3l4 -6q15 0 51 -4zM385 18l-4 -26h-8l-58 373q-8 3 -14 0q-4 0 -10 6q-14 0 -35.5 1.5t-38 3t-18.5 1.5q-3 0 -11.5 -3t-11.5 -3t-17.5 3
t-17.5 3q-18 0 -26 -2q-7 -36 -19.5 -117t-24.5 -147.5t-24 -110.5h-8q-6 6 -6 10q0 3 18 96q16 70 25.5 155.5t17.5 119.5q2 7 4 26.5t4 28.5q32 133 43 221q32 225 64 330q1 4 16 19q17 -40 23 -78q22 -112 47 -277q6 -44 17.5 -133t17.5 -133q0 -1 3 -5.5t3 -6.5
q11 -102 29 -219.5t20 -135.5zM342 1251l-203 -207q-3 0 -14 11q14 15 42.5 45t49.5 53t33 39q12 15 38.5 37t43.5 31q1 -1 5 -4.5t5 -4.5z" />
    <glyph glyph-name="acircumflex" unicode="&#xe2;" horiz-adv-x="483" 
d="M305 387h8l-90 578q-10 -35 -19 -85t-17.5 -111t-10.5 -73q-4 -22 -59 -303h59q12 0 32.5 -1t27.5 -1q4 0 10.5 3t9.5 3l4 -6q9 0 26 -2t19 -2zM387 4q0 -4 -4 -12q-3 0 -8.5 4t-5.5 8q-28 223 -56 363q-87 10 -110 10q-3 0 -11.5 -3t-11.5 -3t-6 3t-6 3h-51
q-9 -51 -22 -136.5t-23 -141t-23 -99.5h-10q-2 2 -2 10q0 19 10 64q31 169 33 219q0 3 2 17t2 20q2 13 26 132.5t31 158.5q6 35 14.5 96.5t14 93.5t16.5 80t25 94q4 16 18 21q20 -73 37.5 -176t37 -247t24.5 -177q0 -1 1.5 -10t4 -14.5t6.5 -8.5q0 -2 -2 -9.5t-2 -9.5
q6 -50 19 -137t22.5 -149t9.5 -64zM328 1053l-6 -6q-4 2 -6.5 6.5t-4 8.5t-2.5 5q-6 17 -22.5 46.5t-20.5 37.5q-2 4 -11.5 29.5t-20 41.5t-27.5 27q-5 -11 -18.5 -40.5t-22.5 -47.5q-2 -4 -10.5 -30.5t-20 -52t-24.5 -36.5q-1 1 -3.5 2t-4 2.5t-1.5 4.5q0 2 5 9t12 17.5
t10 20.5q24 75 70 172q22 -11 39 -32.5t24 -36.5t17 -42q5 -15 21.5 -41.5t21.5 -38.5q1 -3 3 -13t3 -13z" />
    <glyph glyph-name="atilde" unicode="&#xe3;" horiz-adv-x="468" 
d="M287 387h8l-88 576q-15 -53 -47 -267q-6 -38 -21 -111t-27 -127.5t-12 -56.5v-8h60q11 0 31 -1t26 -1q4 0 12 2t11 2l4 -4q6 0 16 -1.5t17.5 -2.5t9.5 0zM371 4q0 -9 -6 -12h-9l-59 375q-72 10 -113 10q-3 0 -11 -3t-11 -3t-5 3t-5 3h-52l-63 -375l-5 -1q-4 -1 -9 -1
q-3 3 -3 12q0 3 2.5 16t5.5 31.5t5 28.5q2 12 13.5 74t14.5 94q4 41 19 121q4 24 15 81t20 105.5t14 87.5q2 15 8.5 58.5t9.5 62.5t9.5 56.5t11.5 60.5t13 51.5t16 52.5q5 9 16 13q10 -31 20.5 -83t22 -125.5t19.5 -131.5t20 -149t18 -130q7 -14 9 -16q1 -4 -1 -11t-2 -8
q6 -51 19 -137t23 -147.5t10 -63.5zM348 1163q0 -32 -16 -66t-47 -34q-25 0 -44.5 18.5t-30 41t-29.5 41t-44 18.5q-13 0 -29 -16t-27 -35t-20 -36t-10 -18h-8q-4 4 -4 8t10.5 30.5t18.5 37.5q41 49 75 49q27 0 46.5 -20.5t37.5 -49.5t37 -40q4 -1 12 -6t11 -5q11 0 19.5 9
t13 22.5t7 26t4 23.5t1.5 12h14q2 -2 2 -11z" />
    <glyph glyph-name="adieresis" unicode="&#xe4;" horiz-adv-x="468" 
d="M299 387l-88 580q-16 -67 -41 -203q-2 -6 -2 -21q-7 -52 -16 -86q-7 -31 -16.5 -92t-14.5 -86l-17 -71v-15h58q12 0 32 -1t27 -1q4 0 12 3t11 3l4 -6q19 0 51 -4zM373 18l-4 -26h-9l-57 373q-7 3 -14 0q-4 0 -10 6q-14 0 -35.5 1.5t-38.5 3t-19 1.5q-3 0 -10 -3t-10 -3
t-18.5 3t-18.5 3h-11q-14 1 -17 -3.5t-6 -29.5q0 -7 -1 -12q-23 -186 -59 -332h-8q-7 7 -7 10q0 2 3.5 17t7.5 35l6 30q6 36 21 157t32 187q26 107 45 236q34 221 62 315q1 4 16 19q4 -3 6 -5q33 -133 66 -350q8 -48 17.5 -141t14.5 -127q1 -1 3.5 -5t3.5 -5q3 -38 11 -98
t20 -137.5t18 -119.5zM160 1141q-4 -4 -5.5 -8.5t-0.5 -8.5t0 -8q-6 0 -9 2t-6 2t-3 -2t-3 -2t-3 -1t-3 -1t-7.5 4t-11.5 12t-10 11q6 -2 19 -2q2 0 3 2t2 5t3 5t5 3t7 1.5t6 1.5q4 -13 17 -16zM317 1139q-6 -6 -6 -21q-4 0 -13.5 -3t-12.5 -3q-1 5 -7 14.5t-6 12.5
q0 8 13 30q0 -6 2 -6q3 -3 9.5 -7.5t11.5 -8.5t9 -8z" />
    <glyph glyph-name="aring" unicode="&#xe5;" horiz-adv-x="479" 
d="M301 387l-86 580q-21 -76 -34.5 -170.5t-26.5 -151.5q-5 -21 -19 -117q-3 -17 -10 -46t-11.5 -49.5t-4.5 -22.5v-17h55q2 0 15 1t18 1q20 -4 28 -4q3 0 11.5 2t11.5 2l4 -4q17 0 49 -4zM287 1112q0 20 -17 65.5t-43 45.5q-32 0 -56 -50.5t-24 -78.5q0 -13 2 -31t15.5 -42
t36.5 -24q5 0 10 4.5t6 4.5l4 -2q11 0 26 17t25 33l9 17q1 5 2.5 15t2.5 16.5t1 9.5zM377 8q0 -8 -4 -16h-8l-58 373q-8 3 -14 0q-2 -2 -10 6q-14 0 -35.5 1.5t-38.5 3t-19 1.5q-3 0 -11 -3t-11 -3t-17.5 3t-17.5 3q-19 0 -27 -4q-7 -37 -19 -116.5t-24 -146t-24 -110.5h-10
l-2 3q-2 3 -2 7q0 2 7.5 42.5t17.5 94t13 82.5q2 14 5.5 47t5.5 46q3 24 26.5 136.5t34.5 182.5q33 231 64 338q-42 7 -58 48.5t-10 84.5q-4 0 -4 6q0 7 39 88q4 6 20.5 17.5t30.5 15.5h10q28 0 46.5 -27.5t24 -54t5.5 -45.5q0 -40 -20.5 -75.5t-57.5 -55.5
q10 -37 21.5 -94.5t23.5 -135.5t19.5 -129.5t19 -139t13.5 -101.5q2 -4 6 -8q1 -31 25 -193.5t24 -171.5z" />
    <glyph glyph-name="ae" unicode="&#xe6;" horiz-adv-x="557" 
d="M127 477l119 10v142q0 3 -2 9.5t-2 8.5q0 16 1 51l1 35v219q-17 -37 -34 -97t-25.5 -100t-29.5 -142.5t-28 -135.5zM473 981q-1 -1 -4 -3.5t-6 -2.5h-62q-22 0 -75.5 -6t-57.5 -8q-4 -8 -4 -19v-453q96 11 109 11q36 0 49 -13v-10q-6 1 -19.5 2t-19.5 2q-1 0 -5 -2t-7 -2
t-5.5 2t-5.5 2q-2 0 -18.5 -2.5t-39 -5.5t-36.5 -4l-6 -348q0 -79 14 -113h193q4 -2 6 -4q0 -6 -6 -12q-74 -4 -154 -4q-42 0 -49 4q-14 9 -21 68q-1 3 -1 6l4 399q-2 2 -10 2q-3 0 -13.5 -4t-13.5 -4q-1 0 -8 2t-11 2q-1 0 -13 -1t-28 -2t-26 -1q-5 -8 -6.5 -21.5t-2 -30.5
t-1.5 -26q-8 -36 -22 -114t-29 -141t-37 -126h-11q-4 4 -4 6t9 32.5t17.5 65t6.5 46.5v4q25 71 51 274l21 84q4 23 12 74t12 71q1 7 9.5 34.5t11.5 39.5q4 15 13 60.5t20.5 84t29.5 78.5q11 27 25 29q71 12 184 12h37l2 -5q2 -4 2 -9z" />
    <glyph glyph-name="ccedilla" unicode="&#xe7;" horiz-adv-x="425" 
d="M377 926v-13l-6 -4q-5 0 -9.5 5.5t-10 15.5t-9.5 16q-21 35 -63 45h-23q-41 0 -92 -35q-44 -32 -72 -127q-40 -146 -43 -303l-2 -116l3 -42q3 -42 3 -53q0 -21 1.5 -42.5t6 -51.5t12 -56.5t21 -54t31 -46.5t44 -31.5t58.5 -12.5q19 0 76 17q4 -4 4 -8q0 -11 -36 -20
t-46 -9q-8 0 -10 2q-14 -33 -14 -47v-16q7 -1 25 -2.5t26 -2.5q16 -50 16 -75q0 -20 -22.5 -32.5t-36.5 -12.5q-4 0 -18.5 6.5t-18.5 11.5v10q2 0 5.5 1t6.5 1q15 -10 25 -10q23 0 30 9t7 30q0 11 -4 43q-16 2 -60 2q-2 4 -2 21q0 7 15 65q-54 8 -94.5 61.5t-49.5 106.5
q-6 27 -14 83.5t-8 63.5v185q0 1 2.5 28.5t5.5 64t4 56.5q1 9 3 44t3 48q1 5 7 21t7 25q15 86 67.5 153.5t127.5 67.5q2 0 14 -2t17 -2q17 3 53.5 -30.5t36.5 -51.5z" />
    <glyph glyph-name="egrave" unicode="&#xe8;" horiz-adv-x="362" 
d="M283 993q-1 0 -4 -3t-7 -3h-61q-22 0 -75.5 -6t-57.5 -8q-6 -12 -6 -117l2 -364h8q27 0 62.5 9t56.5 9q25 0 30 -12v-11q-2 0 -9.5 3.5t-10.5 3.5t-5 -3.5t-5 -3.5t-5.5 2.5t-5.5 2.5t-15 -3t-28 -6.5t-26 -5.5q-1 -1 -4 -3.5t-6 -2.5t-5.5 2t-5.5 2q-11 0 -26 -6v-115
q0 -1 1 -16.5t1.5 -29.5t-0.5 -29q-1 -19 -3 -54t-3.5 -60.5t-1.5 -27.5q0 -81 14 -117h174l6 -4q0 -6 -6 -12q-56 -6 -135 -6q-40 0 -49 4q-8 3 -15.5 42.5t-7.5 55.5v617q0 1 2 16t2 19v239l203 17q17 0 23 -2q0 -2 2 -7t2 -6zM252 1069q-1 -1 -4 -5t-4 -5
q-22 15 -113.5 103t-91.5 104q0 2 8 10q13 -19 39 -44.5t59.5 -53.5t40.5 -35q48 -56 66 -74z" />
    <glyph glyph-name="eacute" unicode="&#xe9;" horiz-adv-x="354" 
d="M272 993q-6 -6 -10 -6h-61q-21 0 -75.5 -5.5t-57.5 -10.5q-7 -21 -7 -105l2 -374h9q28 0 63 9t58 9t28 -12v-11q-2 0 -9.5 3.5t-10.5 3.5t-4 -3.5t-4 -3.5t-6.5 2.5t-6.5 2.5t-15 -3t-28 -6.5t-26 -5.5q-6 -6 -11 -6q-3 0 -4 2t-4 2q-14 0 -29 -6v-158q0 -3 -2 -88
t-2 -88q0 -84 15 -115h192q4 -2 6 -4q0 -9 -6 -12q-56 -6 -155 -6q-34 0 -50 4q-10 8 -16 47t-6 78l8 502q-4 12 -4 43v76v243l188 17h37l2 -5q2 -5 2 -10zM258 1272l12 -12q-4 -4 -18.5 -16.5t-18.5 -16.5q-4 0 -8 -2q-109 -124 -159 -170q-7 0 -15 12q56 55 100 104
t62.5 67t44.5 34z" />
    <glyph glyph-name="ecircumflex" unicode="&#xea;" horiz-adv-x="356" 
d="M55 995l226 13q0 -15 -2 -21h-68q-24 0 -102 -8q-9 0 -29 -8q-1 -4 -2 -13.5t-2 -13.5l2 -450q23 -4 66.5 6t60.5 10q20 0 28 -8v-15q-11 7 -22 7q-3 0 -3 -3.5t-3 -3.5t-5 2.5t-5 2.5q-2 0 -14.5 -3t-30 -6.5t-29.5 -5.5l-1 -3q-1 -3 -5 -3q-3 0 -6.5 2t-6.5 2
q-8 0 -13 -1.5t-7.5 -3t-4 -7t-1.5 -7.5v-11v-11v-110q0 -5 1 -28.5t0 -39.5t-5 -35l-2 -92q-1 -37 4 -70.5t10 -38.5h176l2 -4q2 -5 2 -10q-78 -8 -141 -8q-35 0 -53 6q-2 7 -9.5 38t-7.5 38v653q0 5 4 21q0 3 -1 13t-1 13v215zM272 1075v-14h-14q3 8 -6 29
q-5 11 -20.5 35.5t-20.5 37.5q-4 9 -10 26t-10.5 27.5t-14.5 23.5t-24 22q-6 -15 -22 -50t-21 -51q-1 -3 -10.5 -30.5t-18 -45t-21.5 -32.5q-8 4 -12 8q21 32 50 108t48 113q44 -19 70 -78q1 -2 6 -20.5t10 -26.5q5 -11 16 -31.5t18 -34t7 -16.5z" />
    <glyph glyph-name="edieresis" unicode="&#xeb;" horiz-adv-x="346" 
d="M45 995l225 13q0 -15 -2 -21h-65q-27 0 -105 -8q-8 0 -28 -8q-1 -5 -2 -15.5t-2 -15.5l2 -446q24 -5 69.5 5.5t57.5 10.5q22 0 28 -8v-15q-11 7 -18 7q-3 0 -4 -3.5t-4 -3.5q-4 0 -7 2.5t-6 2.5t-15 -3t-28 -6.5t-26 -5.5q-6 -6 -11 -6q-3 0 -5 2t-5 2q-22 0 -26.5 -7
t0 -20.5t-1.5 -33.5l2 -150l-9 -135q-2 -25 13 -111h182v-12q-16 -4 -25 -4l-114 -4q-38 0 -54 6q-3 4 -10.5 38.5t-7.5 41.5v649q0 5 4 21q0 8 -1 27.5t-1 21.5v192zM102 1149q-5 0 -4.5 -10.5t0.5 -12.5q-3 -1 -6.5 -1t-7.5 0.5t-6 0.5l-6 -6q-7 3 -29 29q4 -4 16 -4
q1 0 7 12q6 6 18 6q3 0 6 -2.5t6.5 -6.5t5.5 -5zM258 1145q0 -2 -1.5 -9.5t-0.5 -9.5q-3 0 -27 -8q-1 5 -7.5 15.5t-6.5 13.5q0 11 12 29q0 -2 2.5 -6.5t1.5 -6.5q1 -1 8.5 -3t13 -5.5t5.5 -9.5z" />
    <glyph glyph-name="igrave" unicode="&#xec;" horiz-adv-x="204" 
d="M82 1010h12q0 -25 -5 -90t-5 -101l-2 -463l-10 -356q-1 1 -7 0.5t-12 1.5l10 436v391q0 103 19 181zM129 1069l-12 -12q-15 13 -65.5 63.5t-71.5 63.5q-2 1 -5.5 6.5t-5.5 7.5q-53 53 -53 66q0 4 8 12q22 -28 33 -35q4 -8 4 -10q6 -5 45 -38t60 -54q8 -8 29.5 -33
t33.5 -37z" />
    <glyph glyph-name="iacute" unicode="&#xed;" horiz-adv-x="219" 
d="M82 1010h12q0 -25 -5 -90t-5 -101l-2 -463l-10 -356q-1 1 -7 0.5t-12 1.5l10 436v391q0 103 19 181zM213 1311l12 -11q-14 -20 -59.5 -71.5t-56.5 -73.5q-1 -2 -7 -5.5t-8 -6.5q-9 -13 -30.5 -34.5t-30.5 -21.5q-3 0 -5.5 2t-5.5 4t-4 3q29 23 35 34q1 0 4.5 2.5t5.5 2.5
q8 11 24.5 33.5t30.5 40t29 34.5q8 10 32.5 33.5t33.5 34.5z" />
    <glyph glyph-name="icircumflex" unicode="&#xee;" horiz-adv-x="188" 
d="M80 1014l6 -4q-7 -36 -9 -103t-5 -94l2 -475q0 -1 -4 -26.5t-4 -37.5l-5 -266l-6 -4q-8 0 -12 4l10 592q-6 48 -6 57q0 3 3 15.5t3 15.5v170l15 156h12zM186 1077v-10q-4 0 -10 -2q-3 6 -8 20.5t-8 20.5q-33 57 -35 63q-4 7 -11.5 28.5t-18.5 39.5t-29 31q-5 -8 -12 -28
t-13 -30q-18 -30 -33 -76t-39 -73q-1 1 -3 1.5t-3.5 2t-1.5 4.5q0 2 5 12.5t12 25t10 26.5q8 30 36.5 88t32.5 67q29 -16 45 -35q10 -13 16.5 -26.5t11.5 -30t9 -25.5q2 -4 14.5 -24t22.5 -40t10 -30z" />
    <glyph glyph-name="idieresis" unicode="&#xef;" horiz-adv-x="200" 
d="M84 1010h10q0 -25 -4 -89.5t-4 -99.5l-4 -465l-10 -354h-17l11 434v395q0 39 7 103.5t11 75.5zM41 1137q-4 -3 -5.5 -7t-0.5 -8t0 -8l-17 2q-6 -6 -10 -6q-3 0 -7.5 5t-10.5 12.5t-10 11.5q3 -2 14 -2q2 0 3.5 1t2.5 2.5t2.5 3.5t3.5 3q2 2 5 3t7.5 1.5t6.5 1.5
q5 -11 16 -16zM199 1135q-6 -3 -6 -21q-1 0 -2 1t-5 1q-3 0 -10.5 -4t-9.5 -4q-1 5 -6.5 15.5t-5.5 13.5t10 28q-2 -4 1.5 -7t14 -9t19.5 -14z" />
    <glyph glyph-name="eth" unicode="&#xf0;" 
 />
    <glyph glyph-name="ntilde" unicode="&#xf1;" horiz-adv-x="485" 
d="M371 29q0 -8 -6.5 -20.5t-14.5 -12.5h-14l-256 973q-4 -2 -4 -11l-13 -960q-1 0 -5.5 -1t-6.5 -1q-4 10 -4 31v22q6 288 6 311q0 14 -2 43.5t-2 30.5v80q0 21 4 53l2 369q2 7 3 29t6 35.5t20 13.5q8 0 8 -4q21 -84 67.5 -275t69.5 -278q21 -80 65 -235.5t50 -178.5
l-14 473l-4 457q0 31 4 41q3 1 5.5 -1.5t4 -7.5t2 -9t1.5 -10.5t1 -8.5l10 -795q0 -22 4 -58.5t8.5 -65t4.5 -29.5zM362 1169q0 -29 -16 -65.5t-47 -36.5q-23 0 -42.5 19t-38.5 49t-32 41q-12 12 -32 12q-22 0 -51 -41.5t-29 -54.5q0 -3 -15 -13q-1 2 -4 3.5t-4 2.5
q14 47 43 84t64 37q26 0 43.5 -19t35.5 -47t39 -40q3 -2 11.5 -8.5t11.5 -6.5q26 0 36.5 40.5t6.5 52.5q2 0 4.5 1t5.5 1q10 0 10 -11z" />
    <glyph glyph-name="ograve" unicode="&#xf2;" horiz-adv-x="468" 
d="M348 399v269q0 66 -22 206q-7 39 -29 72q-29 49 -74 49q-20 0 -41 -11t-32 -32q-24 -42 -40 -93t-21.5 -85.5t-13 -95t-12.5 -88.5q-8 -50 -8 -74q0 -2 -1.5 -26t-3 -55.5t-1.5 -49.5l-2 -135q0 -32 0.5 -45.5t5.5 -46.5t15 -52.5t32 -42.5t54 -36q11 -5 34.5 -10
t30.5 -5q40 0 68 53t40 129t16.5 127t4.5 78zM367 721v-352q0 -3 -1.5 -16t-3 -31.5t-2.5 -28.5q0 -3 -3 -31.5t-5 -44.5t-8 -48t-12 -52.5t-17 -46.5t-23.5 -41t-30.5 -26t-40 -11q-58 0 -114 40t-70 109q-6 24 -6 31v182l6 172q0 25 22.5 179.5t34.5 181.5q53 129 129 129
q43 0 74.5 -37.5t45 -93t19 -96.5t5.5 -68zM309 1071l-12 -10q-12 11 -64 62.5t-75 64.5l-4 5q-4 5 -7 9q0 1 -14.5 15t-27.5 29.5t-13 21.5q0 5 10 10q4 -3 18.5 -21t18.5 -22q16 -15 53 -45.5t52 -46.5q8 -8 30.5 -34t34.5 -38z" />
    <glyph glyph-name="oacute" unicode="&#xf3;" horiz-adv-x="471" 
d="M348 383v315q0 13 -4.5 47.5t-9.5 63.5l-4 29q0 27 -9.5 63t-35.5 70.5t-62 34.5q-38 0 -66 -33t-43 -85t-23.5 -101.5t-14 -98.5t-8.5 -59q-15 -66 -15 -107l-8 -286q-1 -29 3.5 -57.5t17 -60t39 -55.5t65.5 -34q38 -11 47 -11q38 0 66.5 49.5t41 119t18 120t5.5 76.5z
M365 745l2 -325q-3 -14 -5.5 -69t-8.5 -109.5t-18.5 -111.5t-43 -92.5t-74.5 -35.5q-39 0 -67 12q-46 21 -74 52.5t-36 64t-11.5 67.5t0.5 62l8 262q0 28 8 78q4 25 12 97.5t16.5 121.5t20.5 80q19 49 51.5 86t77.5 37q27 0 49 -13.5t36 -37t24.5 -49.5t16.5 -57t9 -53
t5 -43.5t2 -23.5zM360 1262q-29 -15 -73.5 -67.5t-61.5 -68.5q-51 -46 -71 -67l-13 10q13 17 63 68t64 71q2 5 37 35.5t43 30.5q3 0 5 -2t4 -5.5t3 -4.5z" />
    <glyph glyph-name="ocircumflex" unicode="&#xf4;" horiz-adv-x="473" 
d="M350 508l-2 194q0 3 -6 78q0 8 -4 26t-4 23q-1 19 -7 45t-17.5 57.5t-34.5 53t-52 21.5q-28 0 -56 -25.5t-40 -60.5q-19 -53 -29 -99t-19 -120t-13 -99q-9 -56 -9 -78q0 -60 -6 -116l-2 -144q-2 -30 0 -61t8.5 -58.5t26 -54.5t51.5 -47q45 -25 86 -25q98 0 123 310
q6 79 6 180zM369 711v-320q0 -35 -13 -133l-3 -26q-3 -26 -6.5 -51t-13.5 -59t-23.5 -59t-37 -43t-53.5 -18q-54 0 -111 39t-71 106q-8 41 -8 99l4 133q3 67 6 141l-1 3q-1 3 -1 7q0 27 18 138q10 74 33 206q1 5 6.5 18t15 32t13.5 28q37 70 100 70q45 0 77 -39.5t45.5 -98
t18.5 -100.5t5 -73zM313 1079l-4 -14h-8q-3 23 -14 41q-4 7 -18 29.5t-19 33.5q0 1 -9 26.5t-19 42.5t-27 28q-25 -43 -51.5 -115t-45.5 -90l-12 6q15 20 23.5 40t15.5 43.5t12 35.5q3 6 20 43.5t25 56.5q46 -7 84 -112q2 -6 23 -42t24 -53z" />
    <glyph glyph-name="otilde" unicode="&#xf5;" horiz-adv-x="487" 
d="M362 393v275q0 37 -4 81t-15 104t-38.5 99t-66.5 39q-47 0 -79 -51t-43 -109t-20 -127.5t-12 -80.5q-14 -61 -14 -111q0 -1 -2 -25.5t-3.5 -56t-1.5 -51.5l-2 -135q-3 -26 0 -57t10.5 -59t32 -56.5t64.5 -48.5q30 -15 63 -15q40 0 69 52.5t41 127.5t16.5 126t4.5 79z
M381 721v-359q0 -29 -14 -139l-3 -17q-2 -17 -4 -30.5t-7.5 -37.5t-11.5 -42.5t-17 -39.5t-23 -35t-30 -23.5t-38 -9.5q-32 0 -70.5 16.5t-72 52t-39.5 80.5q-1 3 -3 10t-3.5 12.5t-1.5 8.5v178l8 176q0 20 22 177t33 184q57 129 132 129q35 0 62 -26.5t41.5 -62.5t24 -80.5
t12.5 -74t3 -47.5zM381 1153v-12q0 -13 -5.5 -34.5t-22 -43t-38.5 -21.5q-25 0 -44.5 19t-31 41.5t-29.5 41.5t-40 19q-18 0 -39.5 -27t-30 -45t-14.5 -34q-14 2 -16 4q13 50 30 74q12 17 34 31t42 14q21 0 38 -13.5t26.5 -30.5t25 -36.5t33.5 -28.5q16 -8 18 -8q43 0 43 90
q8 4 21 0z" />
    <glyph glyph-name="odieresis" unicode="&#xf6;" horiz-adv-x="481" 
d="M358 383v287q0 34 -4 77.5t-15.5 104.5t-39 101t-66.5 40q-35 0 -62 -31t-42.5 -82t-24.5 -96t-15 -93t-7 -54q-16 -99 -16 -125q0 -108 -5 -141l-4 -133q-1 -31 1 -54t10.5 -56.5t32.5 -60.5t61 -44q14 -5 38.5 -11t30.5 -6q39 0 67 53t39.5 128t16 124t4.5 72zM377 725
v-369q0 -36 -12 -118q0 -1 -2 -18t-4 -32.5t-7.5 -40t-11.5 -45t-16.5 -42.5t-23.5 -37t-31.5 -25t-39.5 -10q-49 0 -86 22q-41 25 -65.5 58.5t-30 64.5t-7.5 64.5t1 58.5l6 264q0 24 22 176.5t35 184.5q53 129 132 129q42 0 72.5 -36t44 -88.5t19 -93t5.5 -67.5zM176 1135
q-5 -15 -2 -27q-6 0 -10 1t-6 1q-3 0 -5.5 -2t-5.5 -2q-6 0 -28 27q6 -3 14 -3q3 0 6 6t4 7q2 1 6.5 1.5t7.5 1.5t5 3q9 -14 14 -14zM336 1128q-7 -7 -4 -20l-2 1q-2 1 -6 1q-3 0 -10 -3t-9 -3q-1 4 -7.5 15t-6.5 14q0 2 2 6.5t5 11t5 10.5q0 -6 4 -14q21 -7 29 -19z" />
    <glyph glyph-name="divide" unicode="&#xf7;" horiz-adv-x="569" 
d="M313 424q0 -3 -2 -8.5t-2 -7.5q-6 2 -22 2q-8 0 -19 16q4 2 6 -2q3 0 5 4q3 0 9 6t9 6q16 0 16 -16zM520 543q-2 -2 -2 -4q-105 14 -121 14h-133q-3 0 -25.5 2t-25.5 2t-10 -2t-10 -2t-13 3t-14 3q-15 1 -43 2.5t-51 3.5t-43 6q0 1 2 6t2 9l270 -17q3 0 22.5 3t22.5 3
t5 -3t5 -3h70q8 0 38.5 -5t49.5 -11q4 0 4 -10zM301 731q0 -2 -2 -7t-2 -7q-12 6 -18 6q-3 0 -4 -2t-5 -2q-2 0 -18 16q2 0 2.5 -0.5t2.5 -1t5 -0.5t1 3t1 3t10.5 4.5t10.5 4.5q8 0 12 -6.5t4 -10.5z" />
    <glyph glyph-name="oslash" unicode="&#xf8;" horiz-adv-x="473" 
d="M346 379v315q0 25 -9.5 102t-14.5 89q-3 16 -21 55q-1 -5 -5.5 -27t-6.5 -30q-32 -109 -35 -125q-6 -24 -84 -404q-5 -30 -22.5 -101t-32.5 -128.5t-15 -58.5q0 -10 37 -28t51 -20q4 0 15 -1t14 -1q38 0 66 48.5t40.5 118t17.5 119t5 77.5zM289 958q0 16 -26.5 28.5
t-41.5 12.5q-58 0 -90 -71q-23 -47 -35 -97t-20.5 -126.5t-12.5 -100.5q-12 -81 -12 -86q0 -125 -4 -158l-2 -133q0 -102 41 -143q17 84 56.5 262t62.5 293q4 25 20 70q5 16 17 77zM362 743l5 -329q-2 -10 -5 -62t-9 -108t-19.5 -114.5t-43.5 -96t-73 -37.5
q-24 0 -64.5 15.5t-56.5 29.5q-2 -6 -4 -18t-2 -13q-3 -2 -9 -1.5t-9 3.5q0 7 4 24t4 19q0 1 -8 14t-18 29.5t-13 26.5q-18 44 -14 131l8 272q0 33 14 105q2 9 9 68t16 104t26.5 99.5t48.5 85t72 30.5q42 0 76 -37q14 38 27 57q10 0 14 -12q-27 -54 -27 -63q0 -3 7 -20
t15.5 -38.5t10.5 -29.5q0 -1 1 -6t1 -9q8 -37 16 -119z" />
    <glyph glyph-name="ugrave" unicode="&#xf9;" horiz-adv-x="376" 
d="M268 993q4 -187 -4 -522l-6 -278q2 -8 -6 -54.5t-32.5 -95.5t-59.5 -49q-41 0 -69.5 34.5t-40 86.5t-15.5 86t-4 59q0 3 2 28.5t2 28.5v228q0 3 1 22t2.5 48t2.5 44q7 162 25 349q1 1 4 5t4 5q4 -2 7 -5t4 -5l1 -2q0 -2 -2.5 -30t-6 -67.5t-5.5 -64.5q-4 -41 -4 -150
q0 -8 -7.5 -65t-7.5 -131v-301q0 -15 6 -43t17 -60.5t33 -56t49 -23.5q19 0 35.5 21t23.5 45q29 92 19 207q-2 17 3 69t5 72l4 578q0 6 10 16q10 -5 10 -29zM252 1079q-2 -1 -5 -5t-5 -5q-17 10 -71 61.5t-69 57.5q-2 1 -5.5 6.5t-6.5 7.5q-6 3 -29.5 27.5t-23.5 34.5
q0 3 2 5t4.5 3t3.5 2q24 -30 75 -71t64 -54q8 -8 31 -33t35 -37z" />
    <glyph glyph-name="uacute" unicode="&#xfa;" horiz-adv-x="380" 
d="M274 989q0 -3 -1 -12.5t-1 -13.5q-2 -39 -1.5 -166.5t-2.5 -347.5l-4 -261q0 -7 -4 -32.5t-14 -64t-31.5 -67t-50.5 -28.5q-41 0 -69 34t-39.5 84.5t-16 86t-4.5 61.5q0 3 3 26.5t3 26.5v220l33 483q1 0 5 1t5 1q6 -4 6 -16q0 -2 -2.5 -28.5t-6 -66t-5.5 -69.5
q-2 -41 -1 -85.5t-1 -62.5q0 -7 -4 -34.5t-8.5 -74.5t-4.5 -102v-276q0 -16 5.5 -44t17 -62t33.5 -58.5t51 -24.5q15 0 28.5 14t22 33t14.5 39t8.5 33t2.5 15q9 15 5.5 88t-3.5 79l6 105l6 582q0 10 8 18q12 -7 12 -33zM303 1264l-203 -207q-7 0 -12 10q26 26 72.5 78
t80.5 87t52 42q1 -2 5 -5t5 -5z" />
    <glyph glyph-name="ucircumflex" unicode="&#xfb;" horiz-adv-x="370" 
d="M262 989q0 -308 -4 -518l-6 -287q0 -25 -9.5 -68.5t-33.5 -86.5t-55 -43q-39 0 -67 32t-40 80t-17 85.5t-5 66.5q0 3 2 29.5t2 29.5v232q0 3 1 21.5t2.5 47t2.5 41.5q3 130 24 348q1 1 4.5 5.5t4.5 5.5q12 -6 12 -15l-21 -237q-2 -26 -1.5 -37t2 -18.5t1.5 -8.5l-14 -202
v-308q0 -23 10 -62t35.5 -77.5t59.5 -38.5q24 0 45 38t24 58q16 82 10.5 125.5t-2.5 79.5l9 117l4 571q0 10 10 17q10 -6 10 -23zM272 1063l-6 -6q-5 3 -8 8t-4 13l-2 7q-7 16 -24 45t-23 41q-1 2 -6 16.5t-10 26t-15 26t-22 22.5q-5 -8 -11.5 -28t-11.5 -28
q-16 -25 -33 -76t-41 -77q-1 1 -3 1.5t-3.5 2t-1.5 4.5q0 1 5.5 11t13 25t10.5 27q6 23 16.5 48t27.5 60t23 48q50 -19 78 -106q2 -8 19.5 -37t23.5 -43q3 -4 8 -31z" />
    <glyph glyph-name="udieresis" unicode="&#xfc;" horiz-adv-x="372" 
d="M266 993q0 -102 -6 -532l-4 -268q0 -3 -2.5 -21t-9.5 -48.5t-17 -58t-28.5 -47.5t-40.5 -20q-42 0 -71 34.5t-40.5 86.5t-15.5 86t-4 59q0 3 3 26.5t3 26.5v226q0 3 1 22.5t2.5 49.5t2.5 44q8 176 24 349q0 5 9 14q10 -6 10 -16q0 -2 -2.5 -31t-6 -69t-5.5 -62
q-2 -45 -1.5 -85.5t-0.5 -62.5q-1 -8 -5.5 -39.5t-8 -75.5t-3.5 -94v-282q0 -15 6 -43t17.5 -62.5t33.5 -59t50 -24.5q7 0 14.5 4t13 9t11 14t9 15.5t8 17.5t6 16t4.5 14l3 9q10 36 11.5 77t-1.5 78t-2 47l9 109l4 580q0 10 8 18q4 -4 7 -11.5t4 -13.5zM109 1155
q-2 -2 -3.5 -9t-2 -12.5t-3.5 -5.5q-4 0 -11.5 -1t-10.5 -1t-7 3t-6.5 6t-6.5 9t-5 7h13q2 0 3 2t2 5t3 5q6 6 16 6q3 0 9.5 -7t9.5 -7zM266 1149q0 -1 -3 -4t1 -12q-5 0 -14 -5l-10 -4q-19 25 -19 27q0 6 10 31q3 -9 19 -17t16 -16z" />
    <glyph glyph-name="yacute" unicode="&#xfd;" 
 />
    <glyph glyph-name="thorn" unicode="&#xfe;" 
 />
    <glyph glyph-name="ydieresis" unicode="&#xff;" 
 />
    <glyph glyph-name="Lslash" unicode="&#x141;" 
 />
    <glyph glyph-name="lslash" unicode="&#x142;" 
 />
    <glyph glyph-name="OE" unicode="&#x152;" horiz-adv-x="565" 
d="M291 53q-1 10 -4 28.5t-4 22.5l4 828q-44 67 -78 67q-21 0 -45 -18q-29 -23 -53 -57q-74 -105 -74 -492q0 -63 2 -88q0 -8 4 -28t4 -27q-1 -37 8 -78.5t27.5 -82t53 -67t79.5 -26.5q16 0 43.5 8.5t32.5 9.5zM475 1014q-1 -1 -2 -4t-2 -4q-92 -5 -156 -17q-4 -3 -5.5 -7.5
t-2.5 -12.5t-2 -13l4 -448q35 -2 76 9t51 11q3 0 27 -8v-16q-8 4 -17 4q-4 0 -5.5 -3t-4.5 -3t-4 3t-4 3t-42 -10.5t-42 -10.5h-33q-6 -60 -6 -63v-78q0 -1 1 -6t2 -21.5t1 -44.5q-6 -18 -6 -38v-78q0 -3 -1 -7.5t-1 -7.5q0 -15 5 -59t11 -49h156l2 -10q-11 -9 -45 -9
q-24 -1 -43.5 -2t-28 -1.5t-10.5 -0.5q-15 0 -39 4q-9 2 -14 21q-34 -19 -80 -19q-50 0 -88 26.5t-57.5 67t-33 89.5t-15 94t-4 80.5t0.5 48.5l7 238q2 12 5 39t9 53q3 10 10 41.5t14 57.5t15 48q16 40 57 79.5t74 39.5q35 0 78 -57q3 22 0 47l127 12h57q1 -1 2 -4t2 -4z
" />
    <glyph glyph-name="oe" unicode="&#x153;" horiz-adv-x="565" 
d="M291 53q-1 10 -4 28.5t-4 22.5l4 828q-44 67 -78 67q-21 0 -45 -18q-29 -23 -53 -57q-74 -105 -74 -492q0 -63 2 -88q0 -8 4 -28t4 -27q-1 -37 8 -78.5t27.5 -82t53 -67t79.5 -26.5q16 0 43.5 8.5t32.5 9.5zM475 1014q-1 -1 -2 -4t-2 -4q-92 -5 -156 -17q-4 -3 -5.5 -7.5
t-2.5 -12.5t-2 -13l4 -448q35 -2 76 9t51 11q3 0 27 -8v-16q-8 4 -17 4q-4 0 -5.5 -3t-4.5 -3t-4 3t-4 3t-42 -10.5t-42 -10.5h-33q-6 -60 -6 -63v-78q0 -1 1 -6t2 -21.5t1 -44.5q-6 -18 -6 -38v-78q0 -3 -1 -7.5t-1 -7.5q0 -15 5 -59t11 -49h156l2 -10q-11 -9 -45 -9
q-24 -1 -43.5 -2t-28 -1.5t-10.5 -0.5q-15 0 -39 4q-9 2 -14 21q-34 -19 -80 -19q-50 0 -88 26.5t-57.5 67t-33 89.5t-15 94t-4 80.5t0.5 48.5l7 238q2 12 5 39t9 53q3 10 10 41.5t14 57.5t15 48q16 40 57 79.5t74 39.5q35 0 78 -57q3 22 0 47l127 12h57q1 -1 2 -4t2 -4z
" />
    <glyph glyph-name="Scaron" unicode="&#x160;" 
 />
    <glyph glyph-name="scaron" unicode="&#x161;" 
 />
    <glyph glyph-name="Ydieresis" unicode="&#x178;" 
 />
    <glyph glyph-name="Zcaron" unicode="&#x17d;" 
 />
    <glyph glyph-name="zcaron" unicode="&#x17e;" 
 />
    <glyph glyph-name="florin" unicode="&#x192;" 
 />
    <glyph glyph-name="hungarumlaut" unicode="&#x2dd;" 
 />
    <glyph glyph-name="pi" unicode="&#x3c0;" 
 />
    <glyph glyph-name="endash" unicode="&#x2013;" 
 />
    <glyph glyph-name="emdash" unicode="&#x2014;" 
 />
    <glyph glyph-name="quoteleft" unicode="&#x2018;" 
 />
    <glyph glyph-name="quoteright" unicode="&#x2019;" 
 />
    <glyph glyph-name="quotesinglbase" unicode="&#x201a;" 
 />
    <glyph glyph-name="quotedblleft" unicode="&#x201c;" 
 />
    <glyph glyph-name="quotedblright" unicode="&#x201d;" 
 />
    <glyph glyph-name="quotedblbase" unicode="&#x201e;" 
 />
    <glyph glyph-name="dagger" unicode="&#x2020;" 
 />
    <glyph glyph-name="daggerdbl" unicode="&#x2021;" 
 />
    <glyph glyph-name="bullet" unicode="&#x2022;" horiz-adv-x="370" 
d="M248 539q0 33 -23.5 89t-56.5 56q-27 0 -52.5 -34.5t-37.5 -69t-8 -39.5q-4 -16 -4 -37q0 -19 4.5 -42t22 -48t46.5 -25q46 0 77.5 54.5t31.5 95.5zM266 539q0 -58 -37.5 -112t-89.5 -54q-39 0 -65.5 36.5t-26.5 69.5v70q0 6 14 39q24 60 31 69q11 15 34.5 29t41.5 14
q27 0 48 -20.5t31 -49.5t14.5 -53t4.5 -38z" />
    <glyph glyph-name="ellipsis" unicode="&#x2026;" 
 />
    <glyph glyph-name="perthousand" unicode="&#x2030;" horiz-adv-x="923" 
d="M567 137q0 5 -2 11l-2 6q-4 52 -33 80t-71 28q-43 0 -75 -39t-32 -78q0 -26 16.5 -58t49.5 -52q3 -1 12.5 -8t19.5 -11t21 -4q44 0 70 44.5t26 80.5zM866 139q0 38 -29 85.5t-73 47.5q-41 0 -80.5 -41t-50.5 -86q2 0 2.5 -2.5t-0.5 -3.5q-4 -16 -4 -30q0 -43 24.5 -74
t71.5 -31q44 0 91.5 42.5t47.5 92.5zM244 778q0 42 -6 56q0 1 -4 11t-7.5 18t-10 20t-13.5 19.5t-16.5 13.5t-20.5 6q-28 0 -52.5 -34.5t-36 -68t-9.5 -39.5q-5 -25 -5 -39q0 -18 4.5 -40.5t22.5 -47t47 -24.5q38 0 72.5 50.5t34.5 98.5zM588 145q0 -48 -30.5 -99.5
t-86.5 -51.5q-55 0 -97 53t-42 100q0 9 9 32.5t11 31.5q7 30 43 51t64 21q44 0 80 -32t45 -89q0 -3 2 -8.5t2 -8.5zM444 975q-34 -60 -51 -154q-1 -3 -6.5 -16t-7.5 -17q-14 -59 -94 -428q-1 -4 -5 -31.5t-8 -39.5q-28 -104 -49 -202.5t-30 -133.5h-11q-4 4 -4 12
q0 7 28 134t61.5 280t43.5 207q2 13 9.5 38t9.5 31q3 13 14.5 66t17.5 76.5t17.5 64.5t24.5 70.5t28 52.5q2 -1 5.5 -4.5t6.5 -5.5zM883 141q0 -63 -51 -110t-107 -47q-36 0 -74.5 30t-38.5 70v68q23 59 62.5 100t89.5 41q39 0 67.5 -29t40 -62.5t11.5 -60.5zM264 776
q0 -57 -37.5 -111.5t-89.5 -54.5q-40 0 -66 37.5t-26 69.5v71q0 14 16 46q23 54 31 63q9 14 33 28.5t41 14.5q27 0 48 -21t31 -50.5t14.5 -54t4.5 -38.5z" />
    <glyph glyph-name="guilsinglleft" unicode="&#x2039;" 
 />
    <glyph glyph-name="guilsinglright" unicode="&#x203a;" 
 />
    <glyph glyph-name="fraction" unicode="&#x2044;" 
 />
    <glyph glyph-name="Euro" unicode="&#x20ac;" horiz-adv-x="339" 
d="M240 498v-21q-50 8 -78 8q-5 0 -13.5 -1t-19.5 -1h-23v-98q6 -13 11 -49q7 -139 86 -139q15 0 37 10v-23q-5 -1 -19 -4.5t-18 -3.5q-21 0 -38 8.5t-28.5 24.5t-20 34.5t-13.5 43.5t-8.5 45.5t-4 46.5t-1 40.5t0 34t0.5 21.5v8q-24 3 -55 15v16q9 -2 26.5 -6t26.5 -6
q1 10 2 33t2 34q-44 11 -53 15l4 16q20 -10 33 -10q3 0 4 3t4 3q5 0 6 -2v-2q0 4 3.5 35.5t5 40.5t6 38.5t9.5 42t12.5 36t17 35t22 26t29 21.5t36.5 10h9v-21q-24 9 -82 -49q-14 -14 -29.5 -86t-15.5 -107v-20q15 -3 62 -2.5t65 2.5v-23q-32 5 -47 5.5t-24.5 -1.5t-18.5 -2
q-3 0 -4.5 -3t-4.5 -3t-8 3t-8 3q-6 0 -14 -4q0 -34 -5 -49v-18h125q1 -1 4.5 -2t4.5 -2z" />
    <glyph glyph-name="trademark" unicode="&#x2122;" horiz-adv-x="419" 
d="M123 1018v-17q-1 0 -16.5 0.5t-18.5 -4.5q-6 -159 -6 -170q0 -49 -14 -104l-15 4q4 11 8.5 35.5t4.5 30.5v96q0 3 4 47t4 47q0 12 -2 16q-11 -8 -27 -8q-4 0 -9.5 5t-6.5 12q6 -1 15.5 0t22 3t19.5 3q0 6 6 6q1 0 13 -1.5t18 -0.5zM301 1012v-138l-12 -153h-13l11 186v74
l-64 -150q-3 0 -12 9q-5 16 -43 116l-12 -229l-13 -4q2 51 2 154q0 3 3.5 10t3.5 10v74q0 33 8 43q6 0 8 -2q17 -49 51 -152q13 30 28.5 73t24 62t15.5 19q2 0 6.5 -1t7.5 -1z" />
    <glyph glyph-name="Omega" unicode="&#x2126;" 
 />
    <glyph glyph-name="partialdiff" unicode="&#x2202;" 
 />
    <glyph glyph-name="Delta" unicode="&#x2206;" 
 />
    <glyph glyph-name="product" unicode="&#x220f;" 
 />
    <glyph glyph-name="summation" unicode="&#x2211;" 
 />
    <glyph glyph-name="minus" unicode="&#x2212;" horiz-adv-x="636" 
d="M532 528q-1 -1 -0.5 -8.5t-1.5 -9.5q-54 12 -59 12q-2 0 -6 -2t-6 -2q-3 0 -9.5 3t-9.5 3h-127q-3 0 -37.5 3t-37.5 3q-2 0 -15 -2t-16 -2t-18 4t-19 5q-39 0 -125 8l2 16l262 -14q3 0 22.5 1t22.5 1q74 0 178 -19z" />
    <glyph glyph-name="radical" unicode="&#x221a;" 
 />
    <glyph glyph-name="infinity" unicode="&#x221e;" 
 />
    <glyph glyph-name="integral" unicode="&#x222b;" 
 />
    <glyph glyph-name="approxequal" unicode="&#x2248;" 
 />
    <glyph glyph-name="notequal" unicode="&#x2260;" 
 />
    <glyph glyph-name="lessequal" unicode="&#x2264;" 
 />
    <glyph glyph-name="greaterequal" unicode="&#x2265;" 
 />
    <glyph glyph-name="lozenge" unicode="&#x25ca;" 
 />
    <glyph glyph-name="apple" unicode="&#xf8ff;" 
 />
    <glyph glyph-name="fi" unicode="&#xfb01;" 
 />
    <glyph glyph-name="fl" unicode="&#xfb02;" 
 />
  </font>
</defs>
</svg>
